<svg width="50" height="50" viewBox="0 0 50 50" fill="none" xmlns="http://www.w3.org/2000/svg">
<path fill-rule="evenodd" clip-rule="evenodd" d="M50 24.9754V25.0223C49.9866 38.8027 38.8251 49.9732 25.0469 50H24.9508C11.1816 49.9732 0.0245799 38.8161 0 25.0469V24.9508C0.0245799 11.166 11.2084 0 25 0C38.7983 0 49.9866 11.1794 50 24.9754Z" fill="url(#paint0_linear_17_100)"/>
<path fill-rule="evenodd" clip-rule="evenodd" d="M34.5531 8.83932C32.7542 8.81027 31.4381 8.37454 30.0348 7.90752C29.7555 7.8092 29.4337 7.70418 29.1432 7.61479C25.2641 6.39027 20.4621 6.45954 16.0623 8.52202C12.5183 10.1845 9.60222 12.971 7.78107 16.4412C7.46376 17.049 7.15987 17.6836 6.85597 18.3182C6.0359 20.0276 5.21805 21.7326 4.15441 22.9147C2.5299 24.5794 1.18918 26.262 0.170235 27.8955C0.603735 31.6472 1.86848 35.1465 3.77454 38.2034C15.5528 36.9118 42.4678 24.0297 48.4943 16.4278C47.6139 14.0123 46.3693 11.7733 44.8297 9.77112C42.1572 8.93764 38.5864 8.57118 34.5531 8.84156V8.83932Z" fill="#012B5B"/>
<path fill-rule="evenodd" clip-rule="evenodd" d="M29.7733 36.6973C39.6723 32.0606 46.7804 24.9682 49.3881 19.4846C48.6842 16.3652 47.3971 13.467 45.6475 10.9085C39.9695 9.77556 29.9856 11.561 19.8185 16.3228C10.9116 20.4991 3.9823 25.9603 0.634964 30.6305C1.54666 34.6013 3.40803 38.21 5.9621 41.2088C12.0222 42.0311 20.9648 40.8222 29.7733 36.6973Z" fill="#1884FF"/>
<path fill-rule="evenodd" clip-rule="evenodd" d="M29.4241 34.5564C36.1278 31.4169 40.6817 27.0417 39.5935 24.7803C38.5053 22.5235 32.1905 23.2363 25.4847 26.378C18.781 29.5176 14.2293 33.8928 15.3153 36.1519C16.4035 38.411 22.7205 37.6982 29.4241 34.5564Z" fill="white"/>
<defs>
<linearGradient id="paint0_linear_17_100" x1="20.3133" y1="17.1863" x2="42.1882" y2="48.4356" gradientUnits="userSpaceOnUse">
<stop stop-color="#0050AE"/>
<stop offset="1" stop-color="#036DE6"/>
</linearGradient>
</defs>
</svg>
