<?xml version="1.0" standalone="no"?>
<!DOCTYPE svg PUBLIC "-//W3C//DTD SVG 20010904//EN"
 "http://www.w3.org/TR/2001/REC-SVG-20010904/DTD/svg10.dtd">
<svg version="1.0" xmlns="http://www.w3.org/2000/svg"
 width="797.000000pt" height="768.000000pt" viewBox="0 0 797.000000 768.000000"
 preserveAspectRatio="xMidYMid meet">

<g transform="translate(0.000000,768.000000) scale(0.100000,-0.100000)"
fill="#007BC1" stroke="none">
<path d="M10 3835 l0 -3835 3980 0 3980 0 0 3835 0 3835 -3980 0 -3980 0 0
-3835z m2999 1310 c67 -116 109 -223 138 -347 36 -154 38 -382 4 -531 -32
-141 -113 -333 -171 -407 l-20 -25 -20 25 c-60 76 -154 312 -179 452 -39 216
-11 476 71 672 32 76 119 236 129 236 3 0 25 -34 48 -75z m-321 -882 l-3 -288
-60 -7 c-131 -17 -254 -108 -317 -235 -31 -64 -33 -73 -33 -178 0 -103 2 -114
32 -178 83 -175 274 -272 460 -233 86 18 133 41 196 96 63 55 80 91 81 165 2
166 -177 263 -321 174 -18 -12 -33 -19 -33 -17 0 2 -1 55 -2 118 l-1 115 274
0 274 0 3 -259 2 -260 -27 -29 c-75 -79 -214 -157 -338 -190 -191 -50 -406
-18 -580 86 -83 50 -207 171 -254 250 -179 302 -137 678 104 922 141 143 326
228 508 234 l37 1 -2 -287z m892 242 l0 -45 -60 0 -60 0 0 -290 0 -290 -70 0
-70 0 0 328 c0 181 3 332 7 335 3 4 62 7 130 7 l123 0 0 -45z m280 39 c0 -16
61 -593 66 -626 l6 -38 -71 0 -71 0 0 33 c0 17 -3 56 -6 85 -6 49 -8 52 -35
52 -28 0 -29 -2 -29 -47 0 -27 -3 -65 -6 -85 l-7 -38 -66 0 -67 0 7 68 c4 37
20 187 35 335 l28 267 108 0 c59 0 108 -3 108 -6z m364 -4 c40 -15 56 -58 56
-154 0 -100 -9 -130 -47 -150 -19 -10 -22 -15 -11 -16 9 0 26 -12 37 -26 18
-23 21 -41 21 -126 0 -107 -14 -159 -48 -177 -12 -6 -64 -11 -117 -11 -88 0
-98 2 -120 24 -25 25 -39 98 -33 171 l3 40 67 3 67 3 3 -73 c2 -57 6 -73 18
-73 12 0 16 17 18 80 4 117 1 123 -56 127 -47 3 -47 3 -50 41 l-3 37 44 0 c61
0 68 12 65 112 -2 66 -6 83 -18 83 -11 0 -16 -15 -18 -62 l-3 -63 -71 0 -71 0
6 80 c7 84 18 112 52 129 26 13 176 14 209 1z m436 -325 l0 -335 -70 0 -70 0
0 290 c0 283 0 290 -20 290 -20 0 -20 -7 -20 -290 l0 -290 -70 0 -70 0 0 335
0 335 160 0 160 0 0 -335z m333 324 c40 -18 47 -49 47 -210 0 -164 -8 -196
-55 -217 -14 -7 -46 -12 -70 -12 l-45 0 0 -110 0 -110 -70 0 -70 0 0 335 0
335 120 0 c66 0 130 -5 143 -11z m363 5 c48 -13 53 -43 54 -305 0 -134 1 -259
0 -277 0 -21 -9 -42 -25 -57 -22 -23 -31 -25 -128 -25 -98 0 -105 1 -128 26
l-24 26 -3 271 c-2 292 0 310 48 334 25 13 167 18 206 7z m339 -214 c25 -137
43 -214 47 -203 7 16 78 395 78 415 0 4 41 8 90 8 l90 0 0 -335 0 -335 -70 0
-70 0 -1 183 c-1 199 -4 196 -39 -35 l-23 -148 -58 0 c-41 0 -59 4 -59 13 0
24 -60 360 -64 365 -3 2 -4 -81 -3 -187 l2 -191 -67 0 -68 0 0 335 0 335 88 0
87 0 40 -220z m303 -750 l2 -210 -1337 2 -1338 3 -3 200 c-1 110 -1 204 2 210
2 7 431 9 1337 8 l1334 -3 3 -210z m-2529 -316 c17 -22 21 -41 21 -104 0 -63
-4 -82 -21 -104 -27 -35 -86 -36 -116 -3 -39 42 -38 173 3 218 27 30 87 26
113 -7z m354 15 c30 -16 37 -28 37 -71 0 -44 -27 -68 -77 -68 -32 0 -32 -1
-35 -52 -2 -39 -7 -53 -18 -53 -12 0 -15 22 -18 128 l-3 127 46 0 c26 0 56 -5
68 -11z m382 -4 c0 -5 -21 -11 -47 -13 l-48 -3 0 -40 0 -39 45 0 c33 0 45 -4
45 -15 0 -11 -12 -15 -45 -15 l-45 0 0 -45 0 -45 45 0 c34 0 45 -4 45 -15 0
-13 -11 -15 -62 -13 l-63 3 -3 114 c-1 63 0 121 3 128 6 17 130 14 130 -2z
m255 -40 l0 -55 45 0 45 0 0 55 c0 42 3 55 15 55 13 0 15 -21 15 -130 0 -109
-2 -130 -15 -130 -12 0 -15 13 -15 60 l0 60 -45 0 -45 0 0 -60 c0 -47 -3 -60
-15 -60 -13 0 -15 21 -15 130 0 109 2 130 15 130 12 0 15 -13 15 -55z m478 38
c2 -9 -11 -13 -47 -13 l-51 0 0 -40 c0 -39 1 -40 33 -40 50 0 77 -24 77 -68 0
-43 -7 -55 -37 -71 -30 -15 -103 -14 -104 2 -1 14 -1 241 0 245 3 10 125 -5
129 -15z m270 -60 c14 -40 28 -73 31 -73 3 0 16 34 29 75 15 49 28 75 37 75 8
0 15 -3 15 -6 0 -17 -64 -212 -76 -231 -17 -26 -64 -32 -64 -8 0 8 9 15 20 15
26 0 25 8 -15 124 -19 55 -35 101 -35 103 0 3 7 3 16 1 11 -2 26 -30 42 -75z
m448 52 c21 -28 17 -82 -6 -105 -12 -12 -33 -20 -54 -20 l-35 0 -3 -52 c-2
-39 -7 -53 -18 -53 -12 0 -15 22 -18 129 l-3 128 62 -4 c45 -3 65 -9 75 -23z
m344 10 c0 -11 -12 -15 -45 -15 l-45 0 0 -115 c0 -96 -3 -115 -15 -115 -13 0
-15 21 -15 130 l0 130 60 0 c47 0 60 -3 60 -15z"/>
<path d="M2947 5077 c-21 -33 -80 -177 -101 -247 -39 -128 -58 -379 -36 -465
6 -25 8 -20 9 26 2 90 28 217 67 330 43 125 61 162 77 156 15 -5 68 -136 102
-252 14 -49 29 -129 32 -177 3 -49 10 -88 14 -88 15 0 10 239 -6 338 -18 112
-53 220 -104 326 l-37 78 -17 -25z"/>
<path d="M2928 4298 c-30 -98 -30 -216 0 -315 12 -40 26 -74 31 -77 5 -3 19
27 32 67 32 99 33 224 1 325 -12 39 -27 72 -32 72 -5 0 -20 -33 -32 -72z"/>
<path d="M3748 4375 c-4 -27 -11 -94 -14 -147 -7 -96 -6 -98 15 -98 19 0 21 5
20 63 -1 34 -4 100 -8 147 -6 84 -6 84 -13 35z"/>
<path d="M4870 4320 c0 -109 3 -141 13 -137 9 3 12 39 12 137 0 98 -3 134 -12
138 -10 3 -13 -29 -13 -138z"/>
<path d="M5247 4453 c-4 -3 -7 -114 -7 -245 0 -197 2 -238 14 -238 8 0 17 7
20 16 3 9 6 112 6 229 0 233 -5 267 -33 238z"/>
<path d="M3930 3703 c-31 -11 -40 -37 -40 -119 0 -99 17 -129 72 -127 57 2 76
17 84 69 11 74 0 145 -26 166 -22 17 -59 22 -90 11z m58 -121 c3 -82 2 -83
-20 -80 -21 3 -23 9 -26 63 -4 77 4 107 26 103 14 -3 17 -17 20 -86z"/>
<path d="M3441 3618 c-1 -53 -7 -91 -17 -105 -7 -12 -14 -40 -14 -63 0 -38 2
-40 30 -40 25 0 30 4 30 25 0 23 4 25 45 25 41 0 45 -2 45 -25 0 -20 5 -25 26
-25 l27 0 -6 68 c-4 37 -7 102 -7 145 l0 77 -79 0 -78 0 -2 -82z m104 -36 l0
-77 -34 -3 c-29 -3 -33 -1 -26 15 4 10 9 46 12 81 5 55 8 62 27 62 20 0 21 -5
21 -78z"/>
<path d="M4340 3580 l0 -120 55 0 c65 0 95 22 95 71 0 48 -16 68 -60 75 -36 6
-40 9 -40 36 0 26 3 29 28 28 44 -3 52 -1 52 15 0 12 -14 15 -65 15 l-65 0 0
-120z m93 -32 c8 -12 7 -21 -2 -32 -23 -28 -41 -19 -41 20 0 28 4 35 16 32 9
-2 22 -10 27 -20z"/>
<path d="M4780 3580 l0 -120 53 0 c71 0 97 19 97 71 0 48 -27 79 -70 79 -29 0
-30 2 -30 45 0 41 -2 45 -25 45 l-25 0 0 -120z m96 -34 c7 -31 -1 -46 -27 -46
-15 0 -19 7 -19 35 0 28 4 35 20 35 12 0 22 -9 26 -24z"/>
<path d="M4960 3580 l0 -120 30 0 30 0 0 120 0 120 -30 0 -30 0 0 -120z"/>
<path d="M5310 3640 c0 -66 16 -84 68 -78 26 3 27 1 30 -49 3 -49 5 -53 28
-53 l24 0 0 120 0 120 -24 0 c-23 0 -25 -5 -28 -47 -3 -40 -6 -48 -23 -48 -17
0 -20 8 -23 48 -3 42 -5 47 -28 47 -23 0 -24 -3 -24 -60z"/>
<path d="M5786 3683 c-7 -25 -46 -205 -46 -215 0 -4 11 -8 24 -8 18 0 25 6 28
23 2 15 11 23 29 25 21 2 28 -2 33 -22 5 -19 13 -26 31 -26 14 0 25 2 25 3 0
2 -11 55 -25 117 -14 62 -25 115 -25 117 0 1 -15 3 -34 3 -24 0 -36 -5 -40
-17z m44 -45 c0 -7 3 -30 6 -50 6 -35 5 -38 -16 -38 -16 0 -20 4 -16 16 3 9 6
31 6 50 0 19 5 34 10 34 6 0 10 -6 10 -12z"/>
<path d="M3376 3238 c-18 -25 -21 -113 -6 -152 10 -27 41 -34 69 -17 23 15 28
134 7 166 -20 31 -50 32 -70 3z"/>
<path d="M3750 3215 c0 -43 1 -45 28 -45 34 0 52 16 52 47 0 24 -26 43 -59 43
-18 0 -21 -6 -21 -45z"/>
<path d="M4840 3105 c0 -41 2 -45 24 -45 45 0 72 50 44 78 -7 7 -25 12 -40 12
-27 0 -28 -2 -28 -45z"/>
<path d="M5560 3215 c0 -43 1 -45 28 -45 34 0 52 16 52 47 0 24 -26 43 -59 43
-18 0 -21 -6 -21 -45z"/>
</g>
</svg>
