<svg width="550" height="550" viewBox="0 0 550 550" fill="none" xmlns="http://www.w3.org/2000/svg">
<rect width="550" height="550" rx="275" fill="white"/>
<path d="M332.69 261.85C332.52 261.939 332.366 262.057 332.181 262.146C329.758 263.464 327.382 264.857 325.036 266.293C324.496 266.59 323.956 266.96 323.416 267.301C321.487 268.486 319.589 269.73 317.706 270.974C317.367 271.226 316.981 271.433 316.626 271.685C315.963 271.196 315.268 270.678 314.574 270.204L311.889 268.145C310.901 267.389 309.96 266.664 309.003 265.893L306.318 263.79L303.525 261.42C302.676 260.68 301.812 259.939 300.994 259.198C300.176 258.458 299.158 257.525 298.232 256.665C297.306 255.806 296.612 255.184 295.856 254.414C295.099 253.644 294.019 252.622 293.093 251.674C292.167 250.726 291.55 250.193 290.902 249.452C289.914 248.445 289.004 247.438 288.047 246.401L286.149 244.297C285.069 243.083 284.02 241.868 282.97 240.624C282.518 240.081 282.055 239.533 281.582 238.98C280.038 237.143 278.665 235.321 277.23 233.425C275.995 231.781 274.792 230.167 273.65 228.493C273.233 227.915 272.817 227.338 272.446 226.76C271.675 225.664 270.903 224.568 270.193 223.472L268.851 221.339C268.218 220.361 267.585 219.369 266.983 218.376L265.656 216.095C265.24 215.384 264.823 214.688 264.453 213.992L265.301 212.614C266.598 210.541 267.879 208.452 269.082 206.349C269.514 205.579 269.962 204.868 270.378 204.068C271.922 201.327 273.326 198.587 274.653 195.773C274.653 195.773 274.653 195.773 274.653 195.684C274.66 195.698 274.663 195.713 274.663 195.729C274.663 195.744 274.66 195.759 274.653 195.773C275.594 197.758 276.613 199.772 277.662 201.698C277.94 202.275 278.264 202.853 278.588 203.401C279.406 204.882 280.27 206.364 281.119 207.845C281.474 208.422 281.782 208.971 282.137 209.548C283.31 211.518 284.544 213.503 285.841 215.473C287.384 217.843 289.081 220.154 290.763 222.435C291.334 223.205 291.936 223.916 292.507 224.657C293.68 226.138 294.853 227.619 296.087 229.174L298.309 231.692C299.451 233.04 300.593 234.344 301.797 235.662C302.599 236.506 303.448 237.365 304.281 238.21C305.454 239.439 306.627 240.654 307.83 241.839L310.5 244.371C311.734 245.497 312.938 246.623 314.203 247.719C315.129 248.534 316.071 249.334 317.058 250.148C318.293 251.215 319.604 252.251 320.901 253.288C321.888 254.073 322.86 254.77 323.879 255.599C325.175 256.577 326.518 257.554 327.845 258.487C328.894 259.258 329.913 259.969 330.931 260.68C331.579 261.05 332.119 261.479 332.69 261.85Z" fill="#FCDE44"/>
<path d="M271.243 187.847C270.826 188.825 270.379 189.802 269.931 190.809C269.484 191.817 269.052 192.794 268.573 193.772C268.095 194.749 267.37 196.142 266.768 197.327C266.29 198.215 265.842 199.134 265.364 200.008C264.608 201.489 263.821 202.778 263.018 204.155C262.601 204.822 262.262 205.518 261.845 206.199C260.642 208.228 259.345 210.243 258.034 212.228C245.331 231.199 228.534 247.333 208.777 259.538C204.662 262.065 200.377 264.43 195.923 266.633C195.166 267.003 194.379 267.344 193.639 267.699C192.188 268.41 190.691 269.18 189.195 269.773C186.942 270.78 184.658 271.758 182.343 272.631C180.028 273.505 177.714 274.409 175.275 275.194L172.668 275.979C171.124 276.468 169.581 276.957 168.038 277.46L164.952 278.29C163.579 278.645 162.19 279.015 160.785 279.356L157.576 280.082C156.233 280.349 154.875 280.66 153.548 280.897C152.221 281.134 151.264 281.297 150.122 281.504C148.98 281.711 147.453 281.963 146.126 282.156C144.799 282.348 143.765 282.452 142.592 282.57C141.419 282.689 139.969 282.911 138.595 283.03L135.077 283.341C133.719 283.459 132.376 283.548 131.049 283.607C129.876 283.607 128.673 283.741 127.469 283.77H125.062V243.911C155.766 243.082 184.974 231.001 206.69 210.149C228.405 189.297 240.979 161.255 241.831 131.783H259.654C259.654 132.642 259.654 133.531 259.747 134.375C259.747 135.471 259.839 136.568 259.916 137.664C259.916 139.145 260.102 140.463 260.194 141.87C260.287 142.966 260.379 144.033 260.487 145.129C260.642 146.521 260.827 147.928 261.027 149.336C261.151 150.387 261.274 151.454 261.429 152.491C261.66 153.972 261.938 155.32 262.2 156.727C262.385 157.764 262.54 158.8 262.74 159.837C263.049 161.319 263.404 162.8 263.743 164.192C263.975 165.125 264.16 166.103 264.407 167.051C264.824 168.695 265.302 170.309 265.78 171.954C265.965 172.679 266.166 173.435 266.413 174.175C267.107 176.545 267.956 178.871 268.728 181.211C268.913 181.73 269.144 182.278 269.36 182.796C269.931 184.499 270.533 186.173 271.243 187.847Z" fill="#69DB00"/>
<path d="M270.734 235.144C270.194 235.84 269.623 236.536 269.083 237.203C268.543 237.869 267.71 238.951 266.985 239.795C266.259 240.639 265.441 241.661 264.608 242.594L262.386 245.127C261.568 246.046 260.704 246.92 259.886 247.808C259.068 248.697 258.343 249.452 257.571 250.267C256.8 251.082 255.859 252.015 254.964 252.859C254.069 253.704 253.42 254.444 252.587 255.2C251.754 255.955 250.751 256.918 249.825 257.762C248.899 258.606 248.205 259.243 247.387 259.954C246.569 260.665 245.412 261.658 244.393 262.517C243.606 263.183 242.85 263.85 242.048 264.516L238.529 267.257C237.866 267.775 237.202 268.323 236.508 268.842C234.625 270.323 232.727 271.656 230.783 272.989C229.116 274.174 227.403 275.329 225.69 276.425L223.869 277.581C222.727 278.321 221.586 279.062 220.444 279.714C219.749 280.143 219.055 280.543 218.33 280.973C217.28 281.58 216.2 282.217 215.12 282.824C214.364 283.224 213.577 283.609 212.867 284.039L210.552 285.253C210.105 284.987 209.657 284.779 209.225 284.498C207.034 283.254 204.812 282.039 202.59 280.839C201.803 280.454 201.046 280.025 200.244 279.625C197.42 278.144 194.534 276.796 191.618 275.522C191.563 275.515 191.514 275.488 191.479 275.448C191.534 275.431 191.594 275.431 191.649 275.448C194.735 274.055 197.821 272.485 200.908 271.004L203.13 269.819C206.216 268.205 209.302 266.531 212.142 264.739C214.611 263.257 217.018 261.628 219.41 259.984C220.197 259.465 220.953 258.888 221.694 258.34C223.237 257.184 224.888 256.059 226.446 254.874L229.039 252.77C230.443 251.645 231.832 250.549 233.175 249.393C234.085 248.623 234.949 247.808 235.86 247.009C237.109 245.883 238.375 244.757 239.609 243.602C240.504 242.743 241.384 241.869 242.248 241.01C243.421 239.854 244.594 238.669 245.736 237.484C246.584 236.566 247.448 235.648 248.266 234.744C249.377 233.53 250.458 232.3 251.507 231.086C252.325 230.108 253.158 229.175 253.945 228.197C254.964 226.938 255.982 225.664 257.031 224.39C257.787 223.413 258.574 222.406 259.284 221.428C259.655 220.88 260.102 220.362 260.488 219.813C260.555 219.964 260.638 220.108 260.735 220.243C262.093 222.554 263.559 224.85 265.056 227.131C265.395 227.649 265.781 228.168 266.136 228.716C267.37 230.567 268.667 232.389 270.025 234.226C270.225 234.463 270.472 234.803 270.734 235.144Z" fill="#69DB00"/>
<path d="M270.735 315.737C270.472 316.078 270.225 316.478 269.963 316.833C268.821 318.314 267.71 319.944 266.645 321.528C266.352 321.958 266.028 322.373 265.719 322.832L265.056 323.839C263.513 326.12 262.108 328.401 260.735 330.727C260.622 330.884 260.519 331.047 260.426 331.216L259.146 329.468L257.248 326.95C256.167 325.543 255.056 324.18 253.945 322.802C253.313 321.988 252.649 321.188 251.985 320.432C250.751 318.951 249.47 317.544 248.174 316.107C247.603 315.47 247.032 314.804 246.43 314.182C242.619 310.108 238.56 306.242 234.347 302.554C233.684 301.976 233.005 301.428 232.341 300.88C230.798 299.636 229.363 298.377 227.835 297.192C227.018 296.555 226.184 295.918 225.366 295.311C223.926 294.215 222.476 293.148 221.015 292.112C220.166 291.504 219.271 290.897 218.391 290.29C217.79 289.89 217.188 289.431 216.586 289.031C216.736 288.963 216.881 288.884 217.018 288.794C219.441 287.446 221.848 286.083 224.224 284.617C224.549 284.439 224.888 284.232 225.243 284.009C225.598 283.787 226.153 283.402 226.632 283.135C228.283 282.099 229.903 281.032 231.523 279.936C231.894 279.684 232.28 279.477 232.635 279.225C247.124 289.544 259.961 301.845 270.735 315.737Z" fill="#4E89FB"/>
<path d="M271.243 363.032C270.703 364.305 270.224 365.624 269.7 366.897C269.376 367.727 269.036 368.542 268.712 369.401C268.018 371.341 267.385 373.296 266.752 375.237C266.629 375.666 266.459 376.066 266.336 376.466C265.616 378.836 264.952 381.231 264.345 383.65C264.175 384.287 264.052 384.894 263.898 385.501C263.45 387.294 263.033 389.101 262.663 390.923C262.462 391.811 262.339 392.685 262.185 393.574C261.891 395.129 261.583 396.685 261.351 398.255C261.197 399.232 261.074 400.239 260.95 401.217C260.75 402.698 260.564 404.18 260.41 405.661C260.271 406.727 260.209 407.764 260.117 408.801C259.993 410.282 259.87 411.689 259.808 413.156C259.731 414.222 259.7 415.318 259.638 416.385C259.577 417.451 259.546 418.177 259.546 419.066H241.769C240.917 389.593 228.343 361.552 206.628 340.7C184.912 319.848 155.704 307.767 125 306.938V289.889C125.91 289.889 126.836 289.889 127.747 289.8C128.657 289.712 130 289.712 131.142 289.638C132.685 289.638 134.135 289.46 135.617 289.341C136.728 289.252 137.839 289.193 138.95 289.06C140.493 288.941 141.959 288.734 143.487 288.541C144.536 288.423 145.616 288.304 146.666 288.156C148.209 287.934 149.86 287.668 151.449 287.386C152.406 287.238 153.378 287.09 154.335 286.897C156.202 286.542 158.054 286.142 159.921 285.742L161.881 285.327C164.427 284.705 166.927 284.068 169.411 283.372C169.774 283.283 170.13 283.169 170.476 283.031C172.606 282.424 174.735 281.787 176.834 281.091L179.21 280.261C180.599 279.743 182.034 279.299 183.423 278.78L186.509 280.054C187.543 280.484 188.562 280.898 189.596 281.358L193.376 283.12C194.287 283.55 195.213 283.979 196.139 284.439C197.558 285.135 198.962 285.92 200.351 286.631C201.077 287.031 201.817 287.386 202.543 287.786C204.6 288.941 206.658 290.131 208.715 291.356C228.451 303.623 245.241 319.78 257.972 338.754C259.284 340.739 260.549 342.724 261.783 344.753C262.2 345.435 262.57 346.131 262.956 346.827C263.743 348.175 264.499 349.538 265.302 350.915C265.78 351.789 266.197 352.678 266.675 353.552C267.277 354.781 267.91 355.966 268.512 357.181C268.99 358.158 269.391 359.166 269.869 360.143C270.348 361.121 270.795 362.084 271.243 363.032Z" fill="#4E89FB"/>
<path d="M424.275 267.108V306.968C393.57 307.797 364.36 319.877 342.642 340.729C320.924 361.581 308.346 389.622 307.491 419.095H265.965C265.965 418.296 265.965 417.54 265.965 416.74C265.965 415.615 266.073 414.459 266.135 413.333C266.197 412.208 266.289 410.741 266.413 409.467C266.536 408.194 266.613 407.186 266.737 406.09C266.86 404.994 267.015 403.498 267.215 402.224C267.416 400.951 267.493 400.003 267.647 398.862C267.802 397.721 268.095 396.314 268.357 395.026C268.62 393.737 268.728 392.833 268.959 391.767C269.206 390.464 269.53 389.19 269.839 387.871C270.101 386.835 270.317 385.783 270.579 384.746C270.919 383.398 271.335 382.065 271.721 380.747C271.999 379.74 272.246 378.777 272.57 377.784C273.017 376.303 273.558 374.822 274.113 373.341C274.36 372.511 274.622 371.697 274.931 370.897C275.764 368.616 276.644 366.364 277.601 364.142V364.054C281.271 355.193 285.829 346.695 291.211 338.68C303.891 319.667 320.692 303.501 340.468 291.282C343.107 289.667 345.838 288.142 348.6 286.675C354.521 283.491 360.644 280.666 366.933 278.217C369.278 277.329 371.562 276.47 374 275.685C374.864 275.374 375.744 275.137 376.608 274.855C378.151 274.381 379.694 273.892 381.237 273.463C382.256 273.152 383.305 272.915 384.324 272.633C385.697 272.278 387.086 271.878 388.49 271.537C389.57 271.3 390.681 271.093 391.746 270.841C393.12 270.545 394.478 270.234 395.851 269.997C396.962 269.775 398.104 269.597 399.215 269.419C400.573 269.167 401.9 268.96 403.273 268.738C404.415 268.59 405.557 268.441 406.699 268.323C407.841 268.205 409.384 267.982 410.758 267.864C412.131 267.745 413.072 267.642 414.245 267.553C415.418 267.464 416.946 267.345 418.304 267.286C419.662 267.227 420.649 267.153 421.822 267.123L424.275 267.108Z" fill="#D24A43"/>
<path d="M357.782 275.448L357.643 275.522L356.856 275.878C355.019 276.707 353.152 277.551 351.331 278.47L349.402 279.418C347.859 280.173 346.424 280.973 344.927 281.758L343.091 282.765C341.054 283.891 339.063 285.017 337.088 286.231C316.546 298.913 299.093 315.696 285.918 335.437C284.652 337.333 283.449 339.244 282.276 341.169C281.921 341.747 281.612 342.295 281.258 342.873C280.409 344.354 279.576 345.761 278.789 347.227C278.434 347.835 278.125 348.442 277.77 349.079C276.89 350.782 275.995 352.501 275.162 354.234L274.699 355.167C274.709 355.188 274.714 355.21 274.714 355.233C274.714 355.256 274.709 355.279 274.699 355.3C274.699 355.3 274.699 355.3 274.699 355.211C273.31 352.367 271.767 349.701 270.224 346.887C269.808 346.131 269.36 345.406 268.928 344.635C267.724 342.502 266.443 340.399 265.116 338.34C264.823 337.911 264.576 337.422 264.283 336.992C264.731 336.207 265.178 335.407 265.656 334.652C266.135 333.897 266.443 333.245 266.86 332.578C267.493 331.541 268.156 330.505 268.82 329.468C269.267 328.772 269.684 328.105 270.132 327.438C270.857 326.313 271.675 325.217 272.415 324.091C272.786 323.543 273.172 322.95 273.557 322.402C274.73 320.758 275.934 319.114 277.168 317.5C279.236 314.73 281.427 312.093 283.634 309.442C293.765 297.541 305.456 286.946 318.416 277.922C320.098 276.737 321.78 275.611 323.493 274.485C324.095 274.085 324.697 273.715 325.299 273.359C326.441 272.619 327.582 271.878 328.724 271.227C329.45 270.767 330.175 270.338 330.916 269.908C331.919 269.301 332.968 268.694 334.002 268.116L336.317 266.842C337.088 266.442 337.86 266.013 338.6 265.613C339.048 265.894 339.526 266.131 339.974 266.383C342.119 267.657 344.341 268.871 346.563 270.071L348.909 271.286C351.733 272.767 354.618 274.115 357.535 275.389L357.782 275.448Z" fill="#D24A43"/>
<path d="M424.275 243.913V260.991C423.349 260.991 422.423 260.991 421.482 261.08L418.149 261.228C416.606 261.302 415.14 261.421 413.612 261.539C412.532 261.628 411.452 261.687 410.34 261.82C408.797 261.969 407.254 262.146 405.711 262.324C404.662 262.457 403.612 262.576 402.625 262.724C401.005 262.946 399.415 263.213 397.826 263.494C396.869 263.672 395.897 263.79 394.94 263.968C393.135 264.309 391.36 264.709 389.554 265.109C388.814 265.286 388.088 265.405 387.363 265.583C384.848 266.16 382.348 266.812 379.879 267.508L378.413 267.967C376.407 268.545 374.447 269.152 372.457 269.789L369.91 270.708C368.552 271.197 367.148 271.656 365.821 272.189C364.772 271.774 363.722 271.345 362.735 270.885C361.747 270.426 360.713 270.071 359.649 269.612C358.352 269.034 357.087 268.427 355.806 267.805C354.927 267.39 354.001 266.99 353.121 266.531C351.655 265.835 350.266 265.049 348.831 264.279C348.137 263.909 347.411 263.583 346.702 263.183C344.773 262.087 342.828 260.961 340.93 259.836C340.788 259.732 340.639 259.638 340.483 259.554C320.733 247.341 303.937 231.209 291.226 212.244C289.853 210.171 288.556 208.097 287.291 205.994C286.843 205.238 286.427 204.512 285.995 203.713C285.223 202.409 284.452 201.061 283.742 199.728C283.294 198.899 282.878 198.054 282.43 197.195C281.797 195.951 281.134 194.662 280.532 193.389C280.084 192.515 279.714 191.596 279.297 190.708C278.788 189.582 278.279 188.456 277.754 187.33L277.538 186.782C276.582 184.561 275.702 182.339 274.869 180.058C274.56 179.228 274.298 178.413 274.051 177.584C273.511 176.103 273.001 174.622 272.508 173.14C272.184 172.192 271.937 171.215 271.659 170.252C271.273 168.904 270.857 167.571 270.517 166.194C270.255 165.157 270.039 164.135 269.776 163.098C269.468 161.78 269.144 160.476 268.897 159.158C268.665 158.091 268.48 156.995 268.295 155.944C268.033 154.625 267.817 153.351 267.585 152.033C267.431 150.937 267.276 149.841 267.153 148.715C267.03 147.59 266.798 146.168 266.675 144.849C266.551 143.531 266.443 142.598 266.351 141.472C266.258 140.346 266.135 138.91 266.073 137.606C266.011 136.303 265.934 135.325 265.903 134.199C265.903 133.4 265.903 132.644 265.903 131.844H307.429C308.3 161.317 320.894 189.352 342.623 210.193C364.352 231.034 393.569 243.099 424.275 243.913Z" fill="#FCDE44"/>
<path d="M199.934 131C197.543 149.276 188.881 166.268 175.316 179.297C161.751 192.326 144.054 200.65 125.015 202.957C127.407 184.681 136.068 167.689 149.633 154.66C163.198 141.631 180.895 133.307 199.934 131Z" fill="#69DB00"/>
<path d="M424.538 347.406C422.133 365.683 413.459 382.672 399.882 395.693C386.306 408.714 368.6 417.026 349.557 419.318C351.961 401.041 360.635 384.053 374.212 371.032C387.788 358.011 405.494 349.698 424.538 347.406Z" fill="#D24A43"/>
<path d="M199.842 418.963H125V347.124C144.252 348.824 162.276 356.939 175.946 370.061C189.617 383.183 198.071 400.484 199.842 418.963Z" fill="#4E89FB"/>
<path d="M350.035 131H425V202.957C405.715 201.259 387.658 193.133 373.964 179.988C360.27 166.844 351.803 149.511 350.035 131Z" fill="#FCDE44"/>
</svg>
