<svg width="30" height="30" viewBox="0 0 30 30" fill="none" xmlns="http://www.w3.org/2000/svg">
<path d="M21.25 25C21.25 22.9289 18.4518 21.25 15 21.25C11.5482 21.25 8.75 22.9289 8.75 25M26.25 21.2505C26.25 19.7127 24.7074 18.3912 22.5 17.8125M3.75 21.2505C3.75 19.7127 5.29262 18.3912 7.5 17.8125M22.5 12.7951C23.2672 12.1085 23.75 11.1106 23.75 10C23.75 7.92893 22.0711 6.25 20 6.25C19.0396 6.25 18.1634 6.61107 17.5 7.20487M7.5 12.7951C6.73281 12.1085 6.25 11.1106 6.25 10C6.25 7.92893 7.92893 6.25 10 6.25C10.9604 6.25 11.8366 6.61107 12.5 7.20487M15 17.5C12.9289 17.5 11.25 15.8211 11.25 13.75C11.25 11.6789 12.9289 10 15 10C17.0711 10 18.75 11.6789 18.75 13.75C18.75 15.8211 17.0711 17.5 15 17.5Z" stroke="black" stroke-width="2" stroke-linecap="round" stroke-linejoin="round"/>
</svg>
