<svg width="383" height="119" viewBox="0 0 383 119" fill="none" xmlns="http://www.w3.org/2000/svg">
<path d="M85.1284 53.6327C85.0588 53.6692 84.9956 53.7177 84.9197 53.7542C83.9266 54.2945 82.9526 54.8652 81.9912 55.4541C81.7698 55.5755 81.5484 55.7273 81.3271 55.8669C80.5364 56.3526 79.7585 56.8626 78.9868 57.3726C78.8477 57.4758 78.6895 57.5608 78.5441 57.664C78.2721 57.4636 77.9875 57.2512 77.7028 57.0569L76.6023 56.213C76.1975 55.9034 75.8117 55.6059 75.4195 55.2902L74.3189 54.4281L73.1741 53.4567C72.8262 53.1531 72.472 52.8495 72.1368 52.546C71.8016 52.2424 71.3841 51.8599 71.0046 51.5078C70.6251 51.1557 70.3405 50.9007 70.0306 50.585C69.7207 50.2693 69.2779 49.8504 68.8984 49.4618C68.5189 49.0733 68.2659 48.8547 68.0003 48.5511C67.5955 48.1383 67.2223 47.7255 66.8301 47.3005L66.0522 46.4384C65.6094 45.9405 65.1793 45.4427 64.7492 44.9327C64.5637 44.7101 64.3739 44.4855 64.18 44.2588C63.5474 43.506 62.9845 42.7592 62.3963 41.9821C61.8903 41.3082 61.3969 40.6464 60.9289 39.9604C60.7581 39.7236 60.5873 39.4868 60.4355 39.2501C60.1193 38.8008 59.803 38.3515 59.5121 37.9023L58.9618 37.028C58.7025 36.6273 58.4432 36.2205 58.1965 35.8138L57.6525 34.8788C57.4818 34.5874 57.311 34.302 57.1592 34.0167L57.5071 33.4521C58.0384 32.6021 58.5633 31.7461 59.0567 30.884C59.2338 30.5683 59.4172 30.2768 59.588 29.949C60.2205 28.8258 60.7961 27.7026 61.34 26.5491C61.34 26.5491 61.34 26.5491 61.34 26.5127C61.3428 26.5184 61.3443 26.5246 61.3443 26.5309C61.3443 26.5372 61.3428 26.5434 61.34 26.5491C61.7258 27.3627 62.1433 28.1883 62.5734 28.9776C62.6873 29.2144 62.8201 29.4511 62.9529 29.6758C63.2881 30.2829 63.6423 30.89 63.9902 31.4971C64.1357 31.7339 64.2622 31.9586 64.4077 32.1953C64.8884 33.0028 65.3943 33.8163 65.9257 34.6238C66.5582 35.5952 67.2539 36.5423 67.9433 37.4773C68.1774 37.793 68.424 38.0844 68.6581 38.3879C69.1388 38.9951 69.6195 39.6022 70.1255 40.2397L71.0363 41.2718C71.5043 41.8242 71.9724 42.3585 72.4657 42.8989C72.7946 43.2449 73.1425 43.597 73.4841 43.9431C73.9648 44.447 74.4454 44.9448 74.9388 45.4305L76.033 46.4687C76.539 46.9301 77.0324 47.3915 77.551 47.8408C77.9305 48.1747 78.3164 48.5026 78.7212 48.8365C79.2272 49.2736 79.7648 49.6986 80.2961 50.1236C80.7009 50.4454 81.0994 50.7307 81.5168 51.0707C82.0481 51.4714 82.5984 51.8721 83.1423 52.2546C83.5724 52.5703 83.9899 52.8617 84.4073 53.1531C84.673 53.3049 84.8944 53.481 85.1284 53.6327Z" fill="#FCDE44"/>
<path d="M59.9421 23.3008C59.7714 23.7015 59.5879 24.1022 59.4045 24.515C59.2211 24.9278 59.044 25.3285 58.8479 25.7292C58.6518 26.1299 58.3545 26.7006 58.1079 27.1863C57.9118 27.5506 57.7284 27.927 57.5323 28.2852C57.2224 28.8923 56.8998 29.4205 56.5709 29.9852C56.4001 30.2584 56.261 30.5437 56.0902 30.823C55.5968 31.6547 55.0655 32.4804 54.5279 33.294C49.3213 41.0701 42.4364 47.6828 34.3385 52.6854C32.6518 53.7215 30.8956 54.6909 29.0697 55.5935C28.7598 55.7453 28.4372 55.8849 28.1336 56.0306C27.5391 56.322 26.9256 56.6377 26.312 56.8806C25.3886 57.2934 24.4525 57.6941 23.5037 58.0523C22.555 58.4105 21.6062 58.7808 20.6069 59.1026L19.5379 59.4244C18.9054 59.6247 18.2729 59.8251 17.6404 60.0315L16.3754 60.3715C15.8125 60.5172 15.2433 60.669 14.6677 60.8086L13.3521 61.1061C12.8018 61.2154 12.2452 61.3429 11.7012 61.44C11.1573 61.5372 10.7651 61.6039 10.2971 61.6889C9.82904 61.7739 9.20286 61.8771 8.65891 61.9561C8.11496 62.035 7.69118 62.0775 7.21048 62.1261C6.72978 62.1746 6.13523 62.2657 5.5723 62.3143L4.1302 62.4418C3.5736 62.4903 3.02332 62.5268 2.47937 62.5511C1.99867 62.5511 1.50532 62.6057 1.01197 62.6178H0.0252686V46.2802C12.6103 45.9404 24.5822 40.9887 33.4829 32.4418C42.3836 23.8949 47.5376 12.4014 47.8867 0.321289H55.192C55.192 0.673418 55.192 1.03769 55.23 1.38375C55.23 1.83302 55.2679 2.28229 55.2996 2.73155C55.2996 3.33867 55.3755 3.87901 55.4134 4.45577C55.4514 4.90504 55.4893 5.34217 55.5336 5.79143C55.5968 6.36213 55.6727 6.93889 55.755 7.51565C55.8056 7.94671 55.8562 8.38384 55.9194 8.80882C56.0143 9.41594 56.1281 9.96842 56.2357 10.5452C56.3116 10.9702 56.3748 11.3952 56.457 11.8201C56.5835 12.4273 56.729 13.0344 56.8682 13.6051C56.963 13.9875 57.0389 14.3883 57.1401 14.7768C57.3109 15.4507 57.507 16.1125 57.7031 16.7864C57.779 17.0839 57.8612 17.3935 57.9624 17.6971C58.247 18.6684 58.5949 19.6216 58.9111 20.5809C58.987 20.7934 59.0819 21.018 59.1705 21.2305C59.4045 21.9287 59.6512 22.6147 59.9421 23.3008Z" fill="#69DB00"/>
<path d="M59.7336 42.6865C59.5122 42.9719 59.2782 43.2572 59.0568 43.5304C58.8354 43.8036 58.4939 44.2468 58.1966 44.5929C57.8993 44.9389 57.5641 45.3578 57.2225 45.7403L56.3117 46.7785C55.9765 47.1549 55.6223 47.5131 55.2871 47.8774C54.9519 48.2417 54.6546 48.5513 54.3383 48.8852C54.0221 49.2191 53.6362 49.6016 53.2694 49.9477C52.9025 50.2937 52.6369 50.5973 52.2953 50.9069C51.9538 51.2166 51.5427 51.6112 51.1632 51.9572C50.7837 52.3033 50.499 52.5644 50.1638 52.8558C49.8286 53.1472 49.3542 53.554 48.9368 53.9061C48.6142 54.1793 48.3043 54.4525 47.9754 54.7257L46.5333 55.8489C46.2613 56.0614 45.9893 56.286 45.7047 56.4985C44.933 57.1056 44.1551 57.652 43.3581 58.1984C42.675 58.6841 41.9729 59.1577 41.2708 59.6069L40.5245 60.0805C40.0564 60.3841 39.5884 60.6876 39.1203 60.9547C38.8357 61.1308 38.5511 61.2947 38.2538 61.4708C37.8237 61.7197 37.381 61.9808 36.9382 62.2297C36.6283 62.3936 36.3057 62.5515 36.0148 62.7275L35.066 63.2254C34.8826 63.1161 34.6992 63.0311 34.5221 62.9158C33.6239 62.4058 32.7131 61.9079 31.8023 61.4162C31.4797 61.2583 31.1698 61.0822 30.8409 60.9183C29.6834 60.3112 28.5006 59.7587 27.3052 59.2366C27.2829 59.2338 27.2626 59.2229 27.2483 59.2062C27.2709 59.1993 27.2952 59.1993 27.3179 59.2062C28.5829 58.6355 29.8479 57.992 31.1129 57.3849L32.0237 56.8992C33.2887 56.2374 34.5537 55.5514 35.7175 54.8168C36.7295 54.2097 37.7162 53.5418 38.6966 52.8679C39.0191 52.6554 39.3291 52.4187 39.6327 52.194C40.2652 51.7205 40.9419 51.2591 41.5808 50.7734L42.6434 49.9112C43.2189 49.4498 43.7882 49.0006 44.3385 48.527C44.7117 48.2113 45.0659 47.8774 45.439 47.5496C45.9514 47.0881 46.47 46.6267 46.976 46.1532C47.3429 45.801 47.7034 45.4428 48.0576 45.0907C48.5383 44.6172 49.019 44.1315 49.487 43.6458C49.8349 43.2693 50.1891 42.893 50.5243 42.5226C50.9797 42.0248 51.4225 41.5209 51.8526 41.023C52.1878 40.6223 52.5294 40.2398 52.8519 39.8391C53.2694 39.3231 53.6868 38.801 54.1169 38.2788C54.4269 37.8781 54.7495 37.4653 55.0404 37.0646C55.1922 36.84 55.3756 36.6275 55.5338 36.4028C55.5612 36.4646 55.5951 36.5236 55.635 36.5789C56.1916 37.526 56.7924 38.467 57.406 39.402C57.5451 39.6145 57.7032 39.827 57.8487 40.0516C58.3547 40.8105 58.886 41.5573 59.4426 42.3101C59.5248 42.4073 59.626 42.5469 59.7336 42.6865Z" fill="#69DB00"/>
<path d="M59.7335 75.7199C59.626 75.8595 59.5248 76.0234 59.4173 76.1692C58.9492 76.7763 58.4938 77.4441 58.0574 78.0937C57.9372 78.2698 57.8044 78.4398 57.6779 78.628L57.4059 79.0408C56.7734 79.9758 56.1979 80.9108 55.6349 81.8639C55.5886 81.9282 55.5463 81.9951 55.5084 82.0643L54.9835 81.3479L54.2055 80.3158C53.7627 79.739 53.3073 79.1805 52.8519 78.6158C52.5926 78.2819 52.3206 77.9541 52.0486 77.6445C51.5426 77.0373 51.0177 76.4606 50.4864 75.8717C50.2523 75.6106 50.0183 75.3374 49.7716 75.0824C48.2094 73.4128 46.5459 71.8283 44.8191 70.3165C44.5472 70.0798 44.2689 69.8551 43.9969 69.6305C43.3644 69.1205 42.7762 68.6044 42.15 68.1187C41.8148 67.8577 41.4732 67.5966 41.138 67.3477C40.5477 66.8984 39.9531 66.4613 39.3543 66.0363C39.0065 65.7874 38.6396 65.5385 38.2791 65.2896C38.0324 65.1257 37.7857 64.9374 37.5391 64.7735C37.6007 64.7458 37.6599 64.7133 37.7162 64.6764C38.7092 64.1239 39.6959 63.5653 40.6699 62.9643C40.8028 62.8914 40.9419 62.8064 41.0874 62.7154C41.2329 62.6243 41.4606 62.4665 41.6566 62.3572C42.3334 61.9322 42.9975 61.4951 43.6617 61.0458C43.8135 60.9426 43.9716 60.8576 44.1171 60.7544C50.0561 64.984 55.3175 70.026 59.7335 75.7199Z" fill="#4E89FB"/>
<path d="M59.9422 95.1057C59.7208 95.6278 59.5247 96.1682 59.3097 96.6903C59.1768 97.0303 59.0377 97.3642 58.9049 97.7163C58.6202 98.5117 58.3609 99.3131 58.1016 100.108C58.051 100.284 57.9814 100.448 57.9308 100.612C57.6356 101.584 57.3637 102.565 57.1149 103.557C57.0453 103.818 56.9947 104.067 56.9314 104.316C56.748 105.05 56.5773 105.791 56.4255 106.538C56.3432 106.902 56.2926 107.26 56.2294 107.625C56.1092 108.262 55.9827 108.899 55.8878 109.543C55.8246 109.944 55.774 110.357 55.7234 110.757C55.6412 111.364 55.5653 111.972 55.502 112.579C55.4451 113.016 55.4198 113.441 55.3818 113.866C55.3312 114.473 55.2806 115.05 55.2553 115.651C55.2237 116.088 55.211 116.537 55.1857 116.974C55.1604 117.411 55.1478 117.709 55.1478 118.073H47.8614C47.5124 105.993 42.3584 94.4995 33.4577 85.9525C24.557 77.4056 12.585 72.4539 0 72.1141V65.1262C0.373176 65.1262 0.752676 65.1262 1.12585 65.0897C1.49903 65.0533 2.04931 65.0533 2.51736 65.023C3.14986 65.023 3.74441 64.9501 4.35161 64.9015C4.80701 64.8651 5.26241 64.8408 5.71781 64.7862C6.35031 64.7376 6.95119 64.6526 7.57736 64.5737C8.00747 64.5251 8.45021 64.4765 8.88032 64.4158C9.51282 64.3248 10.1896 64.2155 10.8411 64.1001C11.2332 64.0394 11.6317 63.9787 12.0238 63.8998C12.7892 63.7541 13.5482 63.5901 14.3135 63.4262L15.1168 63.2562C16.1604 63.0012 17.1851 62.7402 18.2034 62.4548C18.3522 62.4184 18.498 62.3717 18.6398 62.3152C19.5127 62.0663 20.3855 61.8052 21.2457 61.5199L22.2198 61.1799C22.789 60.9674 23.3773 60.7852 23.9465 60.5728L25.2115 61.0949C25.6353 61.271 26.0527 61.4409 26.4765 61.6291L28.0261 62.3516C28.3993 62.5277 28.7788 62.7037 29.1583 62.892C29.7402 63.1773 30.3158 63.4991 30.885 63.7905C31.1823 63.9544 31.4859 64.1001 31.7832 64.2641C32.6265 64.7376 33.4699 65.2253 34.3132 65.7272C42.4024 70.7553 49.2846 77.3779 54.5026 85.155C55.0403 85.9686 55.5589 86.7821 56.0649 87.6139C56.2357 87.8931 56.3875 88.1785 56.5456 88.4638C56.8682 89.0163 57.1781 89.5749 57.507 90.1395C57.7031 90.4977 57.8739 90.862 58.07 91.2202C58.3166 91.7241 58.576 92.2098 58.8226 92.7076C59.0187 93.1083 59.1832 93.5211 59.3792 93.9218C59.5753 94.3225 59.7587 94.7172 59.9422 95.1057Z" fill="#4E89FB"/>
<path d="M122.667 55.7881V72.1257C110.082 72.4654 98.1091 77.4169 89.2073 85.9637C80.3056 94.5105 75.1503 106.004 74.7997 118.085H57.7791C57.7791 117.757 57.7791 117.447 57.7791 117.119C57.7791 116.658 57.8233 116.184 57.8486 115.723C57.8739 115.262 57.9119 114.66 57.9625 114.138C58.0131 113.616 58.0447 113.203 58.0953 112.754C58.1459 112.305 58.2092 111.692 58.2914 111.17C58.3736 110.647 58.4052 110.259 58.4685 109.791C58.5317 109.324 58.6519 108.747 58.7594 108.219C58.8669 107.691 58.9112 107.32 59.0061 106.883C59.1073 106.349 59.2401 105.827 59.3666 105.287C59.4742 104.862 59.5627 104.431 59.6702 104.006C59.8094 103.453 59.9802 102.907 60.1383 102.366C60.2521 101.953 60.3533 101.559 60.4862 101.152C60.6696 100.545 60.891 99.9378 61.1187 99.3307C61.2199 98.9907 61.3274 98.6568 61.4539 98.329C61.7954 97.394 62.156 96.4712 62.5481 95.5605V95.5241C64.0523 91.8922 65.9207 88.4091 68.1268 85.1241C73.3241 77.331 80.2103 70.7046 88.3162 65.6963C89.3978 65.0345 90.5173 64.4092 91.6495 63.8082C94.0763 62.503 96.5859 61.3451 99.1636 60.3415C100.125 59.9772 101.061 59.6251 102.06 59.3033C102.415 59.1758 102.775 59.0787 103.129 58.9633C103.762 58.7691 104.394 58.5687 105.027 58.3926C105.444 58.2651 105.874 58.168 106.292 58.0526C106.855 57.9069 107.424 57.743 108 57.6034C108.442 57.5062 108.898 57.4212 109.334 57.318C109.897 57.1966 110.454 57.0691 111.017 56.972C111.472 56.8809 111.94 56.808 112.396 56.7352C112.952 56.632 113.496 56.547 114.059 56.4559C114.527 56.3952 114.995 56.3345 115.463 56.2859C115.931 56.2374 116.564 56.1463 117.127 56.0977C117.69 56.0492 118.075 56.0067 118.556 55.9702C119.037 55.9338 119.663 55.8852 120.22 55.8609C120.776 55.8367 121.181 55.8063 121.662 55.7942L122.667 55.7881Z" fill="#D24A43"/>
<path d="M95.4129 59.2061L95.3559 59.2364L95.0334 59.3821C94.2807 59.7221 93.5154 60.0682 92.769 60.4446L91.9784 60.8331C91.3459 61.1428 90.7577 61.4706 90.1441 61.7924L89.3915 62.2052C88.5565 62.6667 87.7406 63.1281 86.931 63.6259C78.5111 68.824 71.3574 75.703 65.9573 83.7944C65.4386 84.5715 64.9453 85.3547 64.4646 86.144C64.3191 86.3807 64.1926 86.6054 64.0471 86.8422C63.6992 87.4493 63.3577 88.026 63.0351 88.6271C62.8896 88.876 62.7631 89.1249 62.6177 89.386C62.2571 90.0842 61.8903 90.7884 61.5487 91.4988L61.359 91.8813C61.363 91.8898 61.3651 91.8991 61.3651 91.9086C61.3651 91.918 61.363 91.9273 61.359 91.9359C61.359 91.9359 61.359 91.9359 61.359 91.8995C60.7897 90.7338 60.1572 89.641 59.5247 88.4875C59.354 88.1778 59.1705 87.8803 58.9934 87.5646C58.5001 86.6904 57.9751 85.8283 57.4312 84.9844C57.311 84.8083 57.2098 84.608 57.0896 84.4319C57.273 84.1101 57.4565 83.7823 57.6525 83.4726C57.8486 83.163 57.9751 82.8959 58.1459 82.6227C58.4052 82.1977 58.6772 81.7727 58.9492 81.3477C59.1326 81.0624 59.3034 80.7892 59.4868 80.516C59.7841 80.0546 60.1193 79.6053 60.4229 79.1439C60.5747 78.9192 60.7328 78.6764 60.8909 78.4518C61.3716 77.7779 61.865 77.104 62.371 76.4422C63.2185 75.3069 64.1167 74.2262 65.0212 73.1395C69.1737 68.2614 73.9655 63.9189 79.2778 60.22C79.9672 59.7343 80.6566 59.2729 81.3587 58.8114C81.6054 58.6475 81.852 58.4957 82.0987 58.35C82.5668 58.0465 83.0348 57.7429 83.5029 57.4758C83.8001 57.2876 84.0974 57.1115 84.401 56.9354C84.8121 56.6865 85.2422 56.4376 85.666 56.2008L86.6148 55.6787C86.931 55.5148 87.2473 55.3387 87.5509 55.1748C87.7343 55.2902 87.9304 55.3873 88.1138 55.4905C88.993 56.0126 89.9038 56.5105 90.8146 57.0022L91.776 57.5001C92.9335 58.1072 94.1162 58.6597 95.3117 59.1818L95.4129 59.2061Z" fill="#D24A43"/>
<path d="M122.667 46.2809V53.281C122.288 53.281 121.908 53.281 121.522 53.3174L120.156 53.3781C119.524 53.4085 118.923 53.457 118.297 53.5056C117.854 53.542 117.411 53.5663 116.956 53.621C116.323 53.6817 115.691 53.7545 115.058 53.8274C114.628 53.882 114.198 53.9306 113.793 53.9913C113.129 54.0824 112.478 54.1916 111.826 54.307C111.434 54.3798 111.036 54.4284 110.643 54.5013C109.903 54.6409 109.176 54.8048 108.436 54.9688C108.132 55.0416 107.835 55.0902 107.538 55.163C106.507 55.3998 105.482 55.667 104.47 55.9523L103.869 56.1405C103.047 56.3773 102.244 56.6262 101.428 56.8873L100.384 57.2637C99.8277 57.464 99.2521 57.6522 98.7081 57.8708C98.278 57.7008 97.8479 57.5247 97.4431 57.3365C97.0383 57.1483 96.6146 57.0026 96.1781 56.8144C95.6468 56.5776 95.1282 56.3287 94.6032 56.0737C94.2427 55.9037 93.8632 55.7398 93.5026 55.5516C92.9018 55.2663 92.3325 54.9445 91.7443 54.6288C91.4597 54.477 91.1624 54.3434 90.8714 54.1795C90.0808 53.7302 89.2839 53.2688 88.5059 52.8074C88.4477 52.7648 88.3864 52.7263 88.3225 52.6921C80.2273 47.6862 73.3431 41.0741 68.133 33.3007C67.5701 32.4507 67.0388 31.6007 66.5201 30.7386C66.3367 30.429 66.1659 30.1315 65.9888 29.8036C65.6726 29.2694 65.3563 28.7169 65.0654 28.1705C64.882 27.8305 64.7112 27.4844 64.5278 27.1323C64.2684 26.6223 63.9964 26.0941 63.7498 25.572C63.5663 25.2138 63.4146 24.8374 63.2438 24.4731C63.0351 24.0117 62.8263 23.5503 62.6113 23.0889L62.5227 22.8643C62.1306 21.9536 61.77 21.0429 61.4285 20.1079C61.302 19.768 61.1945 19.434 61.0933 19.0941C60.8719 18.4869 60.6632 17.8798 60.4608 17.2727C60.3279 16.8841 60.2267 16.4834 60.1129 16.0888C59.9548 15.5363 59.784 14.9899 59.6448 14.4253C59.5373 14.0003 59.4488 13.5814 59.3412 13.1564C59.2147 12.6161 59.0819 12.0818 58.9807 11.5415C58.8858 11.1044 58.8099 10.6551 58.734 10.224C58.6265 9.6837 58.538 9.16157 58.4431 8.62124C58.3798 8.17197 58.3166 7.7227 58.266 7.26129C58.2154 6.79987 58.1205 6.21704 58.0699 5.6767C58.0193 5.13637 57.975 4.75388 57.9371 4.29247C57.8991 3.83106 57.8485 3.24215 57.8232 2.70789C57.7979 2.17362 57.7663 1.77292 57.7537 1.31151C57.7537 0.983665 57.7537 0.674036 57.7537 0.346191H74.7743C75.1315 12.4267 80.2932 23.9176 89.1996 32.4598C98.1061 41.0021 110.081 45.9475 122.667 46.2809Z" fill="#FCDE44"/>
<path d="M30.7144 0C29.7341 7.49109 26.1841 14.4559 20.624 19.7961C15.0639 25.1364 7.81013 28.5483 0.00646973 29.4939C0.98673 22.0028 4.5368 15.038 10.0969 9.69772C15.657 4.35746 22.9108 0.945551 30.7144 0Z" fill="#69DB00"/>
<path d="M122.775 88.7002C121.79 96.1916 118.234 103.155 112.669 108.492C107.105 113.829 99.8472 117.236 92.0417 118.176C93.0271 110.684 96.5826 103.721 102.147 98.384C107.712 93.0469 114.97 89.6399 122.775 88.7002Z" fill="#D24A43"/>
<path d="M30.6763 118.03H0V88.585C7.89085 89.2818 15.2787 92.6079 20.8819 97.9863C26.4851 103.365 29.9503 110.456 30.6763 118.03Z" fill="#4E89FB"/>
<path d="M92.2378 0H122.965V29.4939C115.06 28.798 107.659 25.4671 102.046 20.0794C96.433 14.6917 92.9628 7.58748 92.2378 0Z" fill="#FCDE44"/>
<path d="M159.162 41.8188L166.752 50.8284H163.9L156.594 42.2316V50.8284H154.128V42.2316L146.829 50.8284H143.976L151.566 41.8188L144.912 34.9219H147.714L154.178 41.5456V34.9219H156.645V41.5456L163.141 34.9219H165.918L159.162 41.8188Z" fill="#023344"/>
<path d="M171.18 47.6102L177.505 38.6674H179.782V50.8098H177.505V41.9579L171.18 50.828H168.903V38.6431H171.18V47.6102Z" fill="#023344"/>
<path d="M191.825 39.4753C192.2 39.7642 192.496 40.1362 192.688 40.5593C192.879 40.9823 192.961 41.4437 192.926 41.9038C192.961 42.4247 192.834 42.9439 192.56 43.3949C192.286 43.8459 191.878 44.2082 191.389 44.4355C191.971 44.6592 192.476 45.0332 192.85 45.5162C193.237 46.0713 193.43 46.7306 193.4 47.3982C193.428 47.8704 193.346 48.3426 193.16 48.7806C192.974 49.2185 192.689 49.6112 192.325 49.9299C191.418 50.5847 190.294 50.9017 189.162 50.8224H183.318V38.6436H188.878C189.929 38.6048 190.964 38.8969 191.825 39.4753ZM188.922 43.798C189.392 43.8168 189.853 43.67 190.219 43.3852C190.401 43.2168 190.542 43.0121 190.633 42.7855C190.724 42.5589 190.762 42.3159 190.744 42.0738C190.765 41.8371 190.731 41.599 190.644 41.3765C190.558 41.1539 190.421 40.9525 190.244 40.7867C189.868 40.5052 189.398 40.3649 188.922 40.3921H185.62V43.798H188.922ZM189.042 49.1042C190.478 49.1042 191.199 48.4971 191.199 47.2829C191.199 46.0686 190.408 45.3704 188.853 45.3704H185.62V49.1164L189.042 49.1042Z" fill="#023344"/>
<path d="M198.738 47.6102L205.063 38.6674H207.34V50.8098H205.063V41.9579L198.738 50.828H196.468V38.6431H198.738V47.6102Z" fill="#023344"/>
<path d="M219.427 47.6102L225.752 38.6674H228.029V50.8098H225.752V41.9579L219.427 50.828H217.157V38.6431H219.427V47.6102Z" fill="#023344"/>
<path d="M239.996 40.2101C240.415 39.6693 240.944 39.2168 241.552 38.8805C242.243 38.5242 243.02 38.3483 243.804 38.3705C244.586 38.3487 245.358 38.5403 246.03 38.923C246.647 39.2845 247.165 39.7819 247.542 40.374C247.943 41.0037 248.226 41.6963 248.377 42.42C248.731 43.9475 248.731 45.531 248.377 47.0584C248.227 47.7825 247.944 48.4752 247.542 49.1044C247.166 49.7037 246.648 50.2092 246.03 50.5797C245.358 50.9625 244.586 51.1541 243.804 51.1322C243.053 51.1508 242.311 50.9835 241.647 50.6465C241.062 50.3368 240.543 49.925 240.116 49.4323V54.8963L237.846 55.6431V38.6437H239.996V40.2101ZM241.362 40.9265C240.835 41.3124 240.403 41.8059 240.097 42.3715V47.1434C240.406 47.6946 240.838 48.1735 241.362 48.5459C241.916 48.9211 242.582 49.113 243.26 49.0923C243.786 49.111 244.309 48.9935 244.772 48.7523C245.176 48.5132 245.513 48.1815 245.752 47.787C246.02 47.3545 246.207 46.8796 246.302 46.3845C246.401 45.8371 246.449 45.2826 246.448 44.7271C246.449 44.1797 246.4 43.6332 246.302 43.0939C246.212 42.5974 246.026 42.1216 245.752 41.6915C245.513 41.2969 245.176 40.9653 244.772 40.7262C244.302 40.4764 243.772 40.3507 243.235 40.3619C242.562 40.3436 241.903 40.5425 241.362 40.9265Z" fill="#023344"/>
<path d="M254.031 38.7648C254.904 38.4862 255.819 38.3527 256.738 38.3702C257.4 38.3622 258.059 38.4398 258.699 38.6009C259.281 38.7574 259.82 39.0329 260.28 39.4083C260.74 39.7986 261.086 40.2964 261.286 40.8533C261.546 41.5772 261.669 42.3402 261.647 43.1057V50.8283H259.54V49.9601C258.43 50.6552 257.128 51.0147 255.802 50.9922C255.195 51.0023 254.589 50.9246 254.006 50.7615C253.482 50.6203 252.994 50.3787 252.57 50.0512C252.159 49.7205 251.831 49.3056 251.609 48.8369C251.355 48.2869 251.232 47.6897 251.248 47.0884C251.235 46.4894 251.358 45.8949 251.609 45.346C251.836 44.8483 252.18 44.4078 252.614 44.0589C253.068 43.7028 253.59 43.4366 254.151 43.2757C254.778 43.0926 255.432 43.0066 256.087 43.0207C256.658 43.0193 257.229 43.0742 257.788 43.1846C258.347 43.2931 258.894 43.4538 259.42 43.6642V43.2514C259.439 42.7925 259.372 42.3341 259.224 41.8975C259.111 41.5672 258.905 41.2731 258.63 41.0476C258.357 40.8291 258.037 40.6715 257.693 40.5862C257.294 40.4895 256.884 40.4425 256.473 40.4465C255.847 40.4425 255.225 40.5285 254.626 40.7015C254.091 40.8676 253.584 41.1068 253.12 41.4118L252.21 39.6633C252.766 39.2773 253.38 38.9743 254.031 38.7648ZM257.908 48.9948C258.433 48.8783 258.94 48.7009 259.42 48.4666V45.0849C258.972 44.9163 258.505 44.8001 258.029 44.7389C257.568 44.6691 257.103 44.6306 256.637 44.6235C255.833 44.5969 255.037 44.7884 254.341 45.176C254.032 45.3666 253.782 45.6334 253.618 45.9485C253.453 46.2636 253.38 46.6153 253.405 46.967C253.396 47.3162 253.47 47.6628 253.62 47.9809C253.773 48.2483 253.99 48.4772 254.253 48.6487C254.526 48.832 254.833 48.9639 255.157 49.0373C255.524 49.1311 255.903 49.1781 256.283 49.1769C256.83 49.169 257.374 49.108 257.908 48.9948Z" fill="#023344"/>
<path d="M272.994 33.5919C273.293 33.3589 273.513 33.0463 273.626 32.6934L275.612 33.2458C275.521 33.595 275.394 33.9346 275.233 34.2597C275.078 34.5705 274.863 34.8506 274.6 35.0854C274.332 35.3345 274.013 35.5287 273.664 35.6561C273.243 35.8045 272.797 35.8765 272.349 35.8686H269.642C268.06 35.8686 267.276 36.7186 267.276 38.4428V40.7377C267.675 40.2095 268.189 39.7704 268.781 39.4506C269.461 39.1172 270.22 38.9582 270.983 38.9892C271.638 38.9599 272.292 39.078 272.891 39.3341C273.491 39.5903 274.02 39.9774 274.436 40.4645C275.246 41.4298 275.657 42.893 275.657 44.7872C275.679 45.7416 275.549 46.6936 275.271 47.6103C275.058 48.3389 274.683 49.0143 274.17 49.5895C273.701 50.0967 273.12 50.497 272.469 50.7612C271.782 51.0192 271.049 51.1451 270.312 51.1316C269.601 51.1556 268.892 51.03 268.237 50.7637C267.581 50.4973 266.994 50.0965 266.517 49.5895C265.562 48.5756 265.107 47.0578 265.107 45.0604V38.2121C265.063 37.6253 265.143 37.0361 265.341 36.4793C265.538 35.9225 265.85 35.4094 266.258 34.9701C266.685 34.5757 267.193 34.2716 267.749 34.0771C268.306 33.8826 268.899 33.8021 269.49 33.8408H271.957C272.32 33.8575 272.681 33.7709 272.994 33.5919ZM268.661 41.3145C268.101 41.6699 267.621 42.1304 267.251 42.6683V45.0604C267.185 46.0986 267.443 47.132 267.991 48.0292C268.242 48.3814 268.583 48.6654 268.982 48.8537C269.381 49.042 269.824 49.1281 270.268 49.1038C270.712 49.1162 271.152 49.0293 271.555 48.8502C271.958 48.6711 272.312 48.4046 272.589 48.0717C273.19 47.3796 273.475 46.305 273.475 44.854C273.561 43.7866 273.283 42.7213 272.684 41.8184C272.425 41.4914 272.087 41.2303 271.699 41.0578C271.311 40.8853 270.885 40.8066 270.458 40.8288C269.822 40.819 269.198 40.9879 268.661 41.3145Z" fill="#023344"/>
<path d="M285.828 38.7827C286.48 39.0636 287.061 39.4781 287.529 39.997C288.034 40.5862 288.408 41.2679 288.63 42.0004C288.915 42.8847 289.054 43.8067 289.041 44.7325C289.052 45.6661 288.914 46.5958 288.63 47.4888C288.414 48.2236 288.039 48.9063 287.529 49.4923C287.069 50.0091 286.497 50.4234 285.853 50.7065C285.172 50.9876 284.437 51.1282 283.696 51.1194C282.949 51.1281 282.208 50.9875 281.52 50.7065C280.876 50.4234 280.304 50.0091 279.844 49.4923C279.334 48.9063 278.959 48.2236 278.744 47.4888C278.459 46.5958 278.321 45.6661 278.332 44.7325C278.319 43.8067 278.458 42.8847 278.744 42.0004C278.965 41.2679 279.339 40.5862 279.844 39.997C280.312 39.4781 280.893 39.0636 281.546 38.7827C282.224 38.5104 282.951 38.3701 283.687 38.3701C284.422 38.3701 285.149 38.5104 285.828 38.7827ZM281.4 41.4965C280.75 42.467 280.44 43.6113 280.515 44.7628C280.439 45.9067 280.75 47.0435 281.4 48.0049C281.659 48.3548 282.005 48.6381 282.405 48.8298C282.805 49.0214 283.249 49.1155 283.696 49.1037C284.144 49.1133 284.587 49.0183 284.988 48.8269C285.389 48.6355 285.736 48.3534 285.998 48.0049C286.657 47.0471 286.968 45.9076 286.884 44.7628C286.968 43.6105 286.657 42.4634 285.998 41.4965C285.736 41.1473 285.39 40.8643 284.989 40.6718C284.588 40.4793 284.144 40.3832 283.696 40.3916C283.248 40.381 282.805 40.4763 282.404 40.669C282.004 40.8617 281.659 41.1458 281.4 41.4965Z" fill="#023344"/>
<path d="M300.508 40.4644H296.535V50.828H294.258V40.4644H290.28V38.6431H300.508V40.4644Z" fill="#023344"/>
<path d="M304.771 38.7648C305.643 38.4862 306.559 38.3527 307.478 38.3702C308.139 38.3622 308.799 38.4398 309.438 38.6009C310.02 38.7574 310.56 39.0329 311.02 39.4083C311.479 39.7986 311.826 40.2964 312.025 40.8533C312.286 41.5772 312.408 42.3402 312.386 43.1057V50.8283H310.28V49.9601C309.169 50.6552 307.867 51.0147 306.542 50.9922C305.934 51.0023 305.329 50.9246 304.745 50.7615C304.222 50.6203 303.733 50.3787 303.31 50.0512C302.899 49.7205 302.57 49.3056 302.348 48.8369C302.097 48.2864 301.976 47.6892 301.994 47.0884C301.979 46.4898 302.1 45.8953 302.348 45.346C302.576 44.8483 302.92 44.4078 303.354 44.0589C303.808 43.7036 304.33 43.4375 304.891 43.2757C305.518 43.0926 306.171 43.0066 306.826 43.0207C307.398 43.019 307.968 43.0739 308.528 43.1846C309.087 43.2931 309.633 43.4538 310.16 43.6642V43.2514C310.178 42.7925 310.112 42.3341 309.963 41.8975C309.844 41.5753 309.637 41.29 309.363 41.0719C309.09 40.8534 308.77 40.6958 308.426 40.6104C308.028 40.5137 307.617 40.4668 307.206 40.4708C306.58 40.4677 305.958 40.5536 305.359 40.7258C304.824 40.8919 304.317 41.1311 303.853 41.4361L302.943 39.6876C303.499 39.2925 304.116 38.9813 304.771 38.7648ZM308.648 48.9948C309.172 48.8783 309.68 48.7009 310.16 48.4666V45.0849C309.712 44.9156 309.245 44.7994 308.768 44.7389C308.31 44.6694 307.847 44.6308 307.383 44.6235C306.577 44.5961 305.779 44.7876 305.081 45.176C304.773 45.3676 304.523 45.6345 304.359 45.9494C304.194 46.2642 304.12 46.6155 304.144 46.967C304.136 47.3162 304.209 47.6628 304.36 47.9809C304.512 48.2483 304.729 48.4772 304.992 48.6487C305.267 48.8331 305.576 48.9651 305.903 49.0373C306.268 49.1315 306.644 49.1785 307.022 49.1769C307.569 49.169 308.114 49.108 308.648 48.9948Z" fill="#023344"/>
<path d="M318.18 47.6104L324.505 38.6676H326.775V50.81H324.479V41.9581L318.154 50.8282H315.877V38.6433H318.154L318.18 47.6104ZM319.015 33.6467C318.988 33.971 319.033 34.2972 319.149 34.6031C319.265 34.9089 319.448 35.1873 319.685 35.4195C320.125 35.7994 320.7 36.0035 321.292 35.9902C321.611 36.0083 321.931 35.9589 322.228 35.8456C322.525 35.7323 322.793 35.5578 323.013 35.3344C323.232 35.1109 323.398 34.844 323.499 34.5524C323.599 34.2608 323.632 33.9517 323.594 33.6467V33.1792H325.175V33.6406C325.187 34.2079 325.08 34.7717 324.859 35.298C324.672 35.7346 324.387 36.1263 324.024 36.4455C323.662 36.775 323.231 37.0256 322.759 37.1801C321.794 37.4876 320.751 37.4876 319.786 37.1801C319.33 37.0215 318.913 36.7711 318.566 36.4455C318.203 36.1263 317.918 35.7346 317.731 35.298C317.512 34.7713 317.406 34.2075 317.421 33.6406V33.1792H318.996L319.015 33.6467Z" fill="#023344"/>
<path d="M158.783 67.0989C159.565 67.3165 160.289 67.6911 160.908 68.1978C161.499 68.7018 161.967 69.3234 162.281 70.0191C162.619 70.804 162.784 71.6472 162.768 72.4962C162.768 74.7547 161.819 76.2907 159.96 77.1346C161 77.5097 161.906 78.1628 162.572 79.0166C163.256 79.9952 163.589 81.1611 163.521 82.3376C163.568 83.1798 163.42 84.0217 163.086 84.802C162.753 85.5823 162.242 86.2814 161.592 86.8485C160.327 87.917 158.492 88.4209 156.108 88.4209H146.31V66.7528H156.108C157.013 66.7346 157.915 66.8513 158.783 67.0989ZM156.203 76.06C157.084 76.0756 157.941 75.7869 158.619 75.2464C158.971 74.9441 159.246 74.5676 159.422 74.1462C159.597 73.7249 159.669 73.2703 159.631 72.818C159.669 72.3753 159.601 71.93 159.432 71.5164C159.263 71.1028 158.998 70.7318 158.657 70.432C157.955 69.914 157.087 69.6477 156.203 69.6791H149.574V76.0721L156.203 76.06ZM156.076 85.5614C157.228 85.6474 158.375 85.3351 159.308 84.6811C159.673 84.368 159.959 83.9798 160.145 83.5456C160.331 83.1114 160.413 82.6424 160.383 82.1737C160.425 81.6728 160.336 81.1699 160.126 80.71C159.915 80.2501 159.588 79.8477 159.175 79.5388C158.143 78.9169 156.932 78.6217 155.716 78.6949H149.574V85.5614H156.076Z" fill="#023344"/>
<path d="M197.48 67.069C198.682 67.549 199.754 68.2886 200.61 69.2304C201.544 70.2604 202.244 71.4659 202.666 72.7699C203.179 74.3407 203.422 75.9811 203.387 77.6268C203.425 79.2728 203.182 80.9135 202.666 82.4838C202.237 83.7757 201.537 84.9698 200.61 85.9929C199.75 86.9239 198.679 87.6529 197.48 88.1239C194.94 89.0877 192.113 89.0877 189.573 88.1239C188.378 87.6601 187.316 86.9296 186.474 85.9929C185.571 84.9589 184.884 83.7674 184.45 82.4838C183.935 80.9135 183.691 79.2728 183.729 77.6268C183.694 75.9811 183.938 74.3407 184.45 72.7699C184.876 71.4741 185.564 70.2714 186.474 69.2304C187.313 68.283 188.375 67.5419 189.573 67.069C192.113 66.1052 194.94 66.1052 197.48 67.069ZM190.914 69.8557C190.109 70.2129 189.404 70.7499 188.859 71.4221C188.262 72.2075 187.819 73.0898 187.549 74.0266C187.205 75.1996 187.041 76.4145 187.062 77.6329C187.044 78.8492 187.208 80.0617 187.549 81.2331C187.817 82.1593 188.261 83.0299 188.859 83.8012C189.402 84.4769 190.107 85.0164 190.914 85.3737C191.736 85.7261 192.626 85.9062 193.526 85.9019C194.447 85.9065 195.358 85.7266 196.202 85.3737C197.009 85.0164 197.715 84.4769 198.258 83.8012C198.878 83.0391 199.333 82.1661 199.598 81.2331C199.945 80.0626 200.111 78.8497 200.092 77.6329C200.114 76.414 199.948 75.1986 199.598 74.0266C199.332 73.083 198.877 72.1984 198.258 71.4221C197.712 70.7499 197.008 70.2129 196.202 69.8557C195.359 69.5008 194.447 69.3189 193.526 69.3214C192.626 69.319 191.735 69.5012 190.914 69.8557Z" fill="#023344"/>
<path d="M210.863 73.965C211.435 73.2255 212.158 72.6058 212.988 72.1436C213.931 71.6615 214.989 71.425 216.056 71.4576C217.122 71.4244 218.176 71.6857 219.092 72.2104C219.933 72.699 220.639 73.3761 221.148 74.1835C221.694 75.042 222.081 75.9848 222.293 76.9702C222.773 79.0557 222.773 81.2169 222.293 83.3025C222.081 84.2878 221.694 85.2307 221.148 86.0891C220.638 86.906 219.934 87.5948 219.092 88.0987C218.175 88.6206 217.122 88.8817 216.056 88.8515C215.033 88.8769 214.02 88.649 213.115 88.1898C212.317 87.7682 211.609 87.2059 211.028 86.5323V93.9574L207.928 94.9592V71.8886H210.863V73.965ZM212.723 74.9364C212.014 75.4672 211.436 76.1408 211.028 76.9095V83.43C211.437 84.179 212.016 84.8305 212.723 85.3363C213.484 85.8597 214.406 86.1246 215.341 86.0891C216.058 86.1143 216.768 85.9527 217.397 85.6217C217.952 85.2992 218.411 84.8456 218.732 84.3042C219.102 83.7162 219.357 83.068 219.484 82.3918C219.746 80.9088 219.746 79.3942 219.484 77.9112C219.363 77.2336 219.107 76.5844 218.732 75.9988C218.411 75.4574 217.952 75.0038 217.397 74.6814C216.756 74.3428 216.035 74.1711 215.303 74.1835C214.38 74.1488 213.47 74.414 212.723 74.9364Z" fill="#023344"/>
<path d="M229.807 83.3939C230.051 83.9733 230.405 84.5043 230.851 84.9603C231.256 85.352 231.746 85.6526 232.286 85.8406C232.817 86.039 233.38 86.1459 233.95 86.1563C234.73 86.1711 235.5 85.9754 236.17 85.5917C236.786 85.2405 237.32 84.7714 237.739 84.2135L239.788 85.9377C239.511 86.2935 239.207 86.6283 238.877 86.9395C238.496 87.2912 238.071 87.597 237.612 87.8502C236.472 88.5236 235.156 88.8711 233.817 88.8519C232.822 88.8656 231.834 88.6838 230.914 88.3177C230.003 87.9348 229.19 87.3673 228.529 86.6541C227.805 85.85 227.261 84.9119 226.929 83.8978C226.513 82.663 226.315 81.3704 226.341 80.073C226.328 78.8383 226.516 77.6093 226.898 76.4302C227.206 75.4358 227.715 74.5095 228.397 73.7043C229.023 72.9953 229.805 72.4273 230.686 72.0408C232.568 71.2963 234.68 71.2963 236.562 72.0408C237.453 72.4266 238.245 72.9943 238.883 73.7043C239.565 74.5095 240.074 75.4358 240.382 76.4302C240.764 77.6093 240.952 78.8383 240.939 80.073C240.939 80.2915 240.907 80.4494 240.907 80.6376C240.907 80.8258 240.869 81.014 240.869 81.1718H229.25C229.298 81.9383 229.486 82.6907 229.807 83.3939ZM230.686 75.3739C229.819 76.3841 229.316 77.6363 229.25 78.9437H238.03C237.987 77.6373 237.493 76.3815 236.625 75.3739C236.246 74.9868 235.789 74.6784 235.281 74.4676C234.773 74.2567 234.225 74.148 233.672 74.148C233.118 74.148 232.571 74.2567 232.063 74.4676C231.555 74.6784 231.097 74.9868 230.718 75.3739H230.686Z" fill="#023344"/>
<path d="M248.352 78.7126H256.448V71.8643H259.547V88.4265H256.448V81.141H248.352V88.4265H245.246V71.8643H248.352V78.7126Z" fill="#023344"/>
<path d="M275.157 64.9379C275.55 64.6207 275.834 64.1977 275.973 63.7236L278.686 64.4765C278.559 64.9532 278.383 65.4168 278.161 65.8607C277.956 66.2837 277.669 66.665 277.314 66.9839C276.949 67.3215 276.52 67.5875 276.049 67.7671C275.473 67.9656 274.864 68.0623 274.253 68.0524H270.559C268.408 68.0524 267.327 69.212 267.327 71.5616V74.6943C267.875 73.9746 268.578 73.3763 269.389 72.9397C270.316 72.492 271.349 72.2829 272.387 72.3326C273.279 72.2916 274.17 72.4514 274.987 72.7992C275.804 73.1471 276.525 73.6734 277.092 74.3361C278.199 75.6535 278.756 77.6267 278.756 80.2312C278.785 81.5344 278.608 82.8342 278.231 84.0864C277.941 85.0789 277.43 85.9989 276.732 86.782C276.091 87.4731 275.298 88.0186 274.411 88.3788C273.476 88.7293 272.479 88.9005 271.476 88.8827C270.503 88.9186 269.534 88.749 268.636 88.3861C267.739 88.0231 266.936 87.4756 266.283 86.782C264.98 85.4039 264.385 83.3336 264.385 80.6076V71.2337C264.385 69.2909 264.904 67.8521 265.948 66.8199C266.991 65.7878 268.433 65.2839 270.375 65.2839H273.74C274.238 65.3075 274.732 65.1869 275.157 64.9379ZM269.249 75.4653C268.483 75.9516 267.827 76.5815 267.32 77.3171V80.5773C267.234 81.9915 267.586 83.3986 268.332 84.6207C268.675 85.1011 269.141 85.4886 269.685 85.746C270.228 86.0033 270.832 86.1218 271.438 86.0899C272.043 86.1061 272.643 85.9873 273.192 85.7428C273.741 85.4984 274.223 85.1351 274.6 84.6814C275.416 83.7404 275.808 82.2529 275.808 80.2919C275.808 78.4706 275.454 77.0985 274.733 76.1878C274.38 75.7425 273.919 75.3868 273.39 75.1519C272.86 74.917 272.279 74.8099 271.697 74.84C270.835 74.8152 269.985 75.0325 269.249 75.4653Z" fill="#023344"/>
<path d="M288.218 84.462L293.506 71.8643H296.668L287.225 94.2731H284.094L286.706 88.0319L280.078 71.8643H283.278L288.218 84.462Z" fill="#023344"/>
<path d="M302.456 73.965C303.026 73.2236 303.75 72.6035 304.581 72.1436C305.524 71.6615 306.581 71.425 307.649 71.4576C308.715 71.4244 309.769 71.6857 310.685 72.2104C311.526 72.699 312.231 73.3761 312.741 74.1835C313.287 75.042 313.674 75.9848 313.885 76.9702C314.366 79.0557 314.366 81.2169 313.885 83.3025C313.674 84.2878 313.287 85.2307 312.741 86.0891C312.231 86.906 311.526 87.5948 310.685 88.0987C309.768 88.6206 308.715 88.8817 307.649 88.8515C306.625 88.8777 305.612 88.6497 304.708 88.1898C303.91 87.7682 303.201 87.2059 302.62 86.5323V93.9574L299.515 94.9592V71.8886H302.456V73.965ZM304.316 74.9364C303.607 75.4672 303.028 76.1408 302.62 76.9095V83.43C303.03 84.179 303.609 84.8305 304.316 85.3363C305.075 85.8588 305.994 86.1237 306.928 86.0891C307.646 86.1142 308.359 85.9527 308.99 85.6217C309.541 85.2953 310 84.8426 310.324 84.3042C310.695 83.7162 310.95 83.068 311.077 82.3918C311.338 80.9088 311.338 79.3942 311.077 77.9112C310.955 77.2336 310.7 76.5844 310.324 75.9988C310 75.4604 309.541 75.0077 308.99 74.6814C308.349 74.3428 307.627 74.1711 306.896 74.1835C305.968 74.146 305.054 74.4114 304.303 74.9364H304.316Z" fill="#023344"/>
<path d="M333.543 79.0411L341.247 88.4271H337.825L330.444 79.5207V88.4271H327.281V79.5753L319.925 88.4271H316.529L324.169 79.0228L317.446 71.8467H320.748L327.307 78.7132V71.8649H330.469V78.7132L337.003 71.8528H340.33L333.543 79.0411Z" fill="#023344"/>
<path d="M347.225 77.8201H351.336C353.024 77.7338 354.693 78.1958 356.073 79.1315C356.68 79.6111 357.16 80.2224 357.472 80.9149C357.784 81.6073 357.921 82.3612 357.87 83.1142C357.92 83.8716 357.784 84.6299 357.472 85.3272C357.16 86.0246 356.681 86.6413 356.073 87.1272C354.693 88.0651 353.024 88.5292 351.336 88.4447H344.151V71.8643H347.256L347.225 77.8201ZM351.336 85.998C352.266 86.0386 353.183 85.7848 353.948 85.2755C354.257 84.9921 354.503 84.6515 354.671 84.2743C354.839 83.897 354.926 83.4911 354.926 83.0808C354.926 82.6705 354.839 82.2645 354.671 81.8873C354.503 81.5101 354.257 81.1695 353.948 80.886C353.178 80.3917 352.261 80.151 351.336 80.2H347.225V85.998H351.336Z" fill="#023344"/>
<path d="M364.498 83.3939C364.742 83.9733 365.096 84.5043 365.542 84.9603C365.947 85.352 366.437 85.6526 366.977 85.8406C367.508 86.0385 368.071 86.1454 368.641 86.1563C369.421 86.1711 370.191 85.9754 370.861 85.5917C371.478 85.2422 372.013 84.7728 372.43 84.2135L374.511 85.9377C374.234 86.2935 373.93 86.6283 373.6 86.9395C373.218 87.2912 372.793 87.597 372.335 87.8502C371.195 88.5236 369.878 88.8711 368.54 88.8519C367.542 88.8657 366.552 88.6839 365.63 88.3177C364.721 87.933 363.908 87.3658 363.246 86.6541C362.522 85.85 361.977 84.9119 361.645 83.8978C361.23 82.663 361.031 81.3704 361.057 80.073C361.044 78.8383 361.232 77.6093 361.614 76.4302C361.921 75.4342 362.433 74.5073 363.119 73.7043C363.742 72.9942 364.522 72.426 365.403 72.0408C367.284 71.2963 369.397 71.2963 371.278 72.0408C372.17 72.4251 372.963 72.993 373.6 73.7043C374.281 74.5095 374.791 75.4358 375.099 76.4302C375.481 77.6093 375.668 78.8383 375.655 80.073C375.655 80.2915 375.655 80.4494 375.655 80.6376C375.655 80.8258 375.624 81.014 375.624 81.1718H363.941C363.989 81.9383 364.177 82.6907 364.498 83.3939ZM365.377 75.3739C364.51 76.3841 364.007 77.6363 363.941 78.9437H372.721C372.669 77.6336 372.164 76.3775 371.285 75.3739C370.906 74.9868 370.448 74.6784 369.94 74.4676C369.432 74.2567 368.884 74.148 368.331 74.148C367.778 74.148 367.23 74.2567 366.722 74.4676C366.214 74.6784 365.756 74.9868 365.377 75.3739Z" fill="#023344"/>
<path d="M382.391 85.5918C382.562 85.7616 382.696 85.9624 382.785 86.1823C382.874 86.4022 382.916 86.637 382.91 86.8728C382.92 87.3506 382.733 87.8128 382.391 88.1599C382.053 88.4773 381.599 88.6551 381.126 88.6551C380.653 88.6551 380.199 88.4773 379.861 88.1599C379.531 87.808 379.356 87.3463 379.374 86.8728C379.361 86.6388 379.397 86.4047 379.481 86.1845C379.565 85.9643 379.694 85.7627 379.861 85.5918C380.199 85.2744 380.653 85.0966 381.126 85.0966C381.599 85.0966 382.053 85.2744 382.391 85.5918ZM382.29 81.9855H379.975L379.418 66.3765H382.847L382.29 81.9855Z" fill="#023344"/>
</svg>
