<svg width="202" height="306" viewBox="0 0 202 306" fill="none" xmlns="http://www.w3.org/2000/svg">
<circle cx="101" cy="100" r="100" fill="#605CFF"/>
<path d="M101 306L188.469 148.5H13.5314L101 306Z" fill="#605CFF"/>
<circle cx="101" cy="96" r="80" fill="white"/>
<path d="M122.719 90.673C122.655 90.7065 122.597 90.7511 122.527 90.7846C121.615 91.2809 120.72 91.805 119.837 92.3459C119.634 92.4575 119.43 92.5969 119.227 92.7251C118.501 93.1712 117.786 93.6396 117.078 94.1081C116.95 94.2029 116.805 94.2809 116.671 94.3757C116.421 94.1917 116.16 93.9965 115.898 93.8181L114.888 93.043C114.516 92.7586 114.161 92.4854 113.801 92.1954L112.79 91.4035L111.739 90.5113C111.419 90.2325 111.094 89.9537 110.786 89.6749C110.478 89.3961 110.095 89.0448 109.746 88.7213C109.398 88.3979 109.136 88.1637 108.852 87.8737C108.567 87.5838 108.16 87.199 107.812 86.8421C107.463 86.4852 107.231 86.2845 106.987 86.0057C106.615 85.6265 106.272 85.2473 105.912 84.857L105.197 84.0651C104.791 83.6079 104.396 83.1506 104.001 82.6822C103.83 82.4777 103.656 82.2714 103.478 82.0632C102.897 81.3718 102.38 80.6859 101.84 79.9721C101.375 79.3531 100.922 78.7453 100.492 78.1152C100.335 77.8977 100.178 77.6802 100.039 77.4628C99.7481 77.0501 99.4576 76.6375 99.1904 76.2248L98.685 75.4218C98.4468 75.0538 98.2086 74.6802 97.982 74.3066L97.4824 73.4478C97.3256 73.1802 97.1687 72.9181 97.0293 72.656L97.3488 72.1374C97.8368 71.3567 98.319 70.5704 98.7721 69.7786C98.9348 69.4886 99.1033 69.221 99.2601 68.9199C99.8411 67.8882 100.37 66.8566 100.869 65.7971C100.869 65.7971 100.869 65.7971 100.869 65.7637C100.872 65.7689 100.873 65.7746 100.873 65.7804C100.873 65.7862 100.872 65.7919 100.869 65.7971C101.224 66.5444 101.607 67.3027 102.002 68.0277C102.107 68.2451 102.229 68.4626 102.351 68.6689C102.659 69.2266 102.984 69.7842 103.303 70.3418C103.437 70.5593 103.553 70.7656 103.687 70.9831C104.128 71.7247 104.593 72.472 105.081 73.2136C105.662 74.1058 106.301 74.9757 106.934 75.8345C107.149 76.1244 107.376 76.3921 107.591 76.6709C108.032 77.2286 108.474 77.7862 108.939 78.3717L109.775 79.3197C110.205 79.8271 110.635 80.3178 111.088 80.8141C111.39 81.132 111.71 81.4554 112.023 81.7733C112.465 82.2361 112.906 82.6933 113.36 83.1394L114.365 84.093C114.829 84.5168 115.283 84.9406 115.759 85.3532C116.107 85.6599 116.462 85.9611 116.834 86.2678C117.298 86.6693 117.792 87.0596 118.28 87.4499C118.652 87.7455 119.018 88.0076 119.401 88.3198C119.889 88.6879 120.395 89.0559 120.894 89.4072C121.29 89.6972 121.673 89.9648 122.056 90.2325C122.3 90.3719 122.504 90.5336 122.719 90.673Z" fill="#FCDE44"/>
<path d="M99.5857 62.8134C99.4288 63.1814 99.2603 63.5494 99.0918 63.9286C98.9234 64.3078 98.7607 64.6758 98.5806 65.0439C98.4005 65.4119 98.1275 65.9361 97.9009 66.3822C97.7208 66.7168 97.5524 67.0625 97.3723 67.3915C97.0876 67.9491 96.7913 68.4343 96.4892 68.9529C96.3324 69.2038 96.2046 69.4659 96.0477 69.7224C95.5946 70.4864 95.1066 71.2447 94.6128 71.992C89.8306 79.1342 83.5069 85.208 76.069 89.8027C74.5199 90.7544 72.9068 91.6448 71.2298 92.4738C70.9451 92.6132 70.6488 92.7414 70.37 92.8753C69.8239 93.1429 69.2604 93.4329 68.6969 93.6559C67.8487 94.0351 66.9889 94.4032 66.1175 94.7322C65.2461 95.0612 64.3747 95.4013 63.4568 95.6969L62.475 95.9924C61.894 96.1764 61.3131 96.3605 60.7321 96.55L59.5703 96.8623C59.0532 96.9961 58.5304 97.1356 58.0017 97.2638L56.7933 97.537C56.2879 97.6374 55.7767 97.7545 55.2771 97.8437C54.7775 97.933 54.4173 97.9943 53.9874 98.0724C53.5575 98.1504 52.9824 98.2452 52.4827 98.3177C51.9831 98.3902 51.5939 98.4293 51.1524 98.4739C50.7109 98.5185 50.1648 98.6021 49.6477 98.6467L48.3232 98.7638C47.8119 98.8085 47.3065 98.8419 46.8069 98.8642C46.3654 98.8642 45.9123 98.9144 45.4591 98.9255H44.5529V83.9197C56.112 83.6076 67.1081 79.0595 75.2833 71.2093C83.4584 63.3591 88.1923 52.8025 88.5129 41.707H95.2228C95.2228 42.0305 95.2228 42.365 95.2576 42.6829C95.2576 43.0955 95.2925 43.5082 95.3215 43.9208C95.3215 44.4785 95.3912 44.9747 95.4261 45.5045C95.461 45.9171 95.4958 46.3186 95.5365 46.7313C95.5946 47.2555 95.6643 47.7852 95.7398 48.315C95.7863 48.7109 95.8328 49.1124 95.8909 49.5027C95.978 50.0603 96.0826 50.5678 96.1813 51.0975C96.251 51.4879 96.3091 51.8782 96.3846 52.2686C96.5008 52.8262 96.6345 53.3838 96.7623 53.908C96.8494 54.2593 96.9191 54.6273 97.0121 54.9842C97.1689 55.6032 97.349 56.211 97.5291 56.83C97.5988 57.1032 97.6743 57.3876 97.7673 57.6664C98.0287 58.5586 98.3482 59.4341 98.6387 60.3152C98.7084 60.5103 98.7956 60.7167 98.8769 60.9118C99.0919 61.5531 99.3184 62.1832 99.5857 62.8134Z" fill="#69DB00"/>
<path d="M99.3942 80.6191C99.1908 80.8812 98.9759 81.1433 98.7725 81.3942C98.5692 81.6452 98.2555 82.0522 97.9825 82.3701C97.7094 82.6879 97.4015 83.0727 97.0878 83.424L96.2512 84.3776C95.9433 84.7233 95.618 85.0523 95.3101 85.3869C95.0022 85.7215 94.7292 86.0058 94.4387 86.3125C94.1482 86.6192 93.7939 86.9705 93.4569 87.2884C93.12 87.6062 92.876 87.8851 92.5623 88.1695C92.2485 88.4539 91.8709 88.8163 91.5224 89.1342C91.1738 89.452 90.9124 89.6918 90.6045 89.9595C90.2966 90.2271 89.8609 90.6007 89.4774 90.9242C89.1812 91.1751 88.8965 91.426 88.5944 91.677L87.2699 92.7086C87.0201 92.9037 86.7702 93.1101 86.5088 93.3052C85.8001 93.8629 85.0855 94.3647 84.3535 94.8666C83.7261 95.3127 83.0813 95.7477 82.4364 96.1603L81.7509 96.5953C81.321 96.8741 80.8911 97.1529 80.4612 97.3982C80.1998 97.56 79.9383 97.7105 79.6653 97.8722C79.2703 98.1009 78.8636 98.3406 78.4569 98.5693C78.1723 98.7198 77.876 98.8648 77.6088 99.0265L76.7373 99.4838C76.5689 99.3834 76.4004 99.3054 76.2377 99.1994C75.4128 98.731 74.5762 98.2737 73.7397 97.8221C73.4434 97.6771 73.1587 97.5154 72.8566 97.3648C71.7935 96.8072 70.7072 96.2997 69.6092 95.8202C69.5887 95.8176 69.57 95.8076 69.5569 95.7923C69.5777 95.7859 69.6 95.7859 69.6208 95.7923C70.7827 95.2681 71.9446 94.677 73.1065 94.1194L73.943 93.6733C75.1049 93.0655 76.2668 92.4353 77.3357 91.7606C78.2652 91.203 79.1715 90.5896 80.072 89.9706C80.3683 89.7754 80.6529 89.558 80.9318 89.3516C81.5127 88.9167 82.1343 88.4929 82.7211 88.0468L83.6971 87.2549C84.2257 86.8311 84.7486 86.4185 85.254 85.9835C85.5967 85.6936 85.9221 85.3869 86.2648 85.0858C86.7354 84.662 87.2118 84.2382 87.6765 83.8032C88.0135 83.4798 88.3446 83.1508 88.6699 82.8274C89.1114 82.3924 89.553 81.9463 89.9829 81.5002C90.3024 81.1545 90.6277 80.8087 90.9356 80.4686C91.3539 80.0113 91.7605 79.5485 92.1556 79.0912C92.4635 78.7232 92.7772 78.3719 93.0735 78.0038C93.4569 77.5299 93.8403 77.0503 94.2354 76.5707C94.52 76.2027 94.8163 75.8235 95.0836 75.4555C95.223 75.2491 95.3915 75.054 95.5367 74.8477C95.5619 74.9044 95.5931 74.9586 95.6296 75.0094C96.1409 75.8793 96.6928 76.7436 97.2563 77.6024C97.3841 77.7975 97.5293 77.9927 97.6629 78.199C98.1277 78.8961 98.6157 79.5819 99.1269 80.2734C99.2024 80.3626 99.2954 80.4909 99.3942 80.6191Z" fill="#69DB00"/>
<path d="M99.3943 110.96C99.2956 111.088 99.2026 111.239 99.1039 111.373C98.674 111.93 98.2557 112.544 97.8548 113.14C97.7445 113.302 97.6225 113.458 97.5063 113.631L97.2565 114.01C96.6755 114.869 96.1469 115.728 95.6298 116.603C95.5873 116.662 95.5485 116.724 95.5136 116.787L95.0315 116.129L94.3169 115.181C93.9102 114.651 93.492 114.138 93.0737 113.62C92.8355 113.313 92.5857 113.012 92.3359 112.728C91.8711 112.17 91.3889 111.64 90.901 111.099C90.686 110.86 90.4711 110.609 90.2445 110.374C88.8096 108.841 87.2817 107.386 85.6957 105.997C85.4459 105.78 85.1903 105.573 84.9405 105.367C84.3595 104.899 83.8192 104.425 83.2441 103.978C82.9362 103.739 82.6225 103.499 82.3146 103.27C81.7724 102.858 81.2263 102.456 80.6763 102.066C80.3568 101.837 80.0199 101.608 79.6887 101.38C79.4622 101.229 79.2356 101.056 79.009 100.906C79.0657 100.88 79.1201 100.851 79.1717 100.817C80.0838 100.309 80.99 99.7962 81.8847 99.2441C82.0067 99.1772 82.1345 99.0991 82.2681 99.0155C82.4017 98.9318 82.6109 98.7869 82.791 98.6865C83.4126 98.2962 84.0226 97.8947 84.6326 97.482C84.772 97.3872 84.9172 97.3092 85.0508 97.2144C90.5058 101.099 95.3383 105.73 99.3943 110.96Z" fill="#4E89FB"/>
<path d="M99.5856 128.765C99.3823 129.244 99.2022 129.741 99.0046 130.22C98.8826 130.533 98.7548 130.839 98.6328 131.163C98.3714 131.893 98.1332 132.629 97.895 133.36C97.8486 133.522 97.7847 133.672 97.7382 133.823C97.4671 134.715 97.2173 135.616 96.9888 136.527C96.9249 136.767 96.8784 136.996 96.8203 137.224C96.6518 137.899 96.495 138.579 96.3555 139.265C96.28 139.6 96.2335 139.929 96.1754 140.263C96.0651 140.849 95.9489 141.434 95.8617 142.025C95.8036 142.393 95.7572 142.773 95.7107 143.141C95.6352 143.698 95.5655 144.256 95.5074 144.814C95.4551 145.215 95.4318 145.605 95.397 145.996C95.3505 146.553 95.304 147.083 95.2808 147.635C95.2517 148.037 95.2401 148.449 95.2169 148.851C95.1936 149.252 95.182 149.526 95.182 149.86H88.4896C88.169 138.765 83.4351 128.208 75.26 120.358C67.0848 112.508 56.0887 107.96 44.5295 107.647V101.229C44.8723 101.229 45.2209 101.229 45.5636 101.196C45.9064 101.162 46.4118 101.162 46.8417 101.134C47.4226 101.134 47.9687 101.067 48.5264 101.023C48.9447 100.989 49.363 100.967 49.7813 100.917C50.3622 100.872 50.9141 100.794 51.4892 100.722C51.8843 100.677 52.2909 100.632 52.686 100.577C53.2669 100.493 53.8885 100.393 54.4869 100.287C54.8471 100.231 55.2131 100.175 55.5733 100.103C56.2762 99.9689 56.9734 99.8183 57.6763 99.6677L58.4141 99.5116C59.3727 99.2774 60.3138 99.0376 61.2491 98.7755C61.3857 98.742 61.5197 98.6992 61.65 98.6473C62.4517 98.4186 63.2534 98.1789 64.0434 97.9168L64.9381 97.6045C65.4609 97.4093 66.0012 97.242 66.5241 97.0469L67.686 97.5264C68.0752 97.6882 68.4586 97.8443 68.8478 98.0171L70.2712 98.6807C70.6139 98.8424 70.9625 99.0042 71.3111 99.177C71.8455 99.4391 72.3742 99.7347 72.897 100.002C73.1701 100.153 73.4489 100.287 73.722 100.437C74.4966 100.872 75.2711 101.32 76.0457 101.781C83.4756 106.399 89.7967 112.482 94.5895 119.625C95.0833 120.373 95.5596 121.12 96.0244 121.884C96.1813 122.14 96.3207 122.402 96.4659 122.664C96.7622 123.172 97.0469 123.685 97.3489 124.204C97.529 124.533 97.6859 124.867 97.866 125.196C98.0926 125.659 98.3307 126.105 98.5573 126.562C98.7374 126.93 98.8885 127.31 99.0685 127.678C99.2486 128.046 99.4171 128.408 99.5856 128.765Z" fill="#4E89FB"/>
<path d="M157.198 92.6528V107.659C145.638 107.971 134.641 112.519 126.465 120.369C118.289 128.219 113.554 138.775 113.232 149.871H97.5989C97.5989 149.57 97.5989 149.286 97.5989 148.985C97.5989 148.561 97.6395 148.126 97.6628 147.702C97.686 147.278 97.7209 146.726 97.7673 146.247C97.8138 145.767 97.8429 145.388 97.8893 144.975C97.9358 144.563 97.9939 143.999 98.0694 143.52C98.145 143.04 98.174 142.683 98.2321 142.254C98.2902 141.825 98.4006 141.295 98.4993 140.81C98.5981 140.325 98.6388 139.985 98.7259 139.583C98.8189 139.092 98.9409 138.613 99.057 138.116C99.1558 137.726 99.2371 137.33 99.3359 136.94C99.4637 136.432 99.6206 135.931 99.7658 135.434C99.8704 135.055 99.9633 134.693 100.085 134.319C100.254 133.761 100.457 133.204 100.666 132.646C100.759 132.334 100.858 132.027 100.974 131.726C101.288 130.867 101.619 130.02 101.979 129.183V129.15C103.361 125.814 105.077 122.615 107.103 119.598C111.877 112.44 118.202 106.353 125.647 101.753C126.64 101.146 127.669 100.571 128.708 100.019C130.937 98.8204 133.242 97.7569 135.61 96.8351C136.493 96.5005 137.353 96.1771 138.271 95.8815C138.596 95.7644 138.927 95.6752 139.253 95.5692C139.833 95.3908 140.414 95.2068 140.995 95.0451C141.379 94.928 141.774 94.8388 142.157 94.7328C142.674 94.599 143.197 94.4484 143.726 94.3202C144.132 94.2309 144.551 94.1529 144.952 94.0581C145.469 93.9465 145.98 93.8294 146.497 93.7402C146.915 93.6566 147.345 93.5897 147.763 93.5227C148.275 93.4279 148.774 93.3499 149.291 93.2662C149.721 93.2105 150.151 93.1547 150.581 93.1101C151.011 93.0655 151.592 92.9818 152.109 92.9372C152.626 92.8926 152.98 92.8536 153.422 92.8201C153.863 92.7867 154.438 92.7421 154.95 92.7197C155.461 92.6974 155.833 92.6696 156.274 92.6584L157.198 92.6528Z" fill="#D24A43"/>
<path d="M132.165 95.7925L132.113 95.8204L131.816 95.9542C131.125 96.2665 130.422 96.5843 129.737 96.9301L129.01 97.287C128.429 97.5713 127.889 97.8725 127.326 98.168L126.634 98.5472C125.868 98.971 125.118 99.3948 124.375 99.8521C116.641 104.626 110.07 110.945 105.11 118.377C104.634 119.09 104.181 119.81 103.739 120.535C103.606 120.752 103.49 120.958 103.356 121.176C103.036 121.734 102.723 122.263 102.426 122.815C102.293 123.044 102.177 123.273 102.043 123.512C101.712 124.154 101.375 124.8 101.061 125.453L100.887 125.804C100.891 125.812 100.893 125.821 100.893 125.829C100.893 125.838 100.891 125.846 100.887 125.854C100.887 125.854 100.887 125.854 100.887 125.821C100.364 124.75 99.7832 123.747 99.2022 122.687C99.0454 122.403 98.8769 122.129 98.7142 121.839C98.2611 121.036 97.7789 120.245 97.2793 119.47C97.1689 119.308 97.076 119.124 96.9656 118.962C97.134 118.667 97.3025 118.365 97.4826 118.081C97.6627 117.797 97.7789 117.551 97.9358 117.3C98.1739 116.91 98.4237 116.52 98.6736 116.129C98.842 115.867 98.9989 115.616 99.1674 115.365C99.4404 114.942 99.7483 114.529 100.027 114.105C100.167 113.899 100.312 113.676 100.457 113.469C100.899 112.85 101.352 112.231 101.816 111.624C102.595 110.581 103.42 109.588 104.251 108.59C108.065 104.11 112.466 100.121 117.345 96.7238C117.978 96.2777 118.612 95.8538 119.256 95.43C119.483 95.2795 119.71 95.1401 119.936 95.0062C120.366 94.7274 120.796 94.4486 121.226 94.2033C121.499 94.0304 121.772 93.8687 122.051 93.707C122.428 93.4783 122.823 93.2497 123.213 93.0322L124.084 92.5527C124.375 92.4021 124.665 92.2404 124.944 92.0898C125.112 92.1958 125.292 92.285 125.461 92.3798C126.268 92.8594 127.105 93.3166 127.942 93.7683L128.825 94.2256C129.888 94.7832 130.974 95.2906 132.072 95.7702L132.165 95.7925Z" fill="#D24A43"/>
<path d="M157.198 83.9203V90.3498C156.849 90.3498 156.501 90.3498 156.146 90.3833L154.891 90.4391C154.31 90.4669 153.759 90.5116 153.183 90.5562C152.777 90.5896 152.37 90.6119 151.952 90.6621C151.371 90.7179 150.79 90.7848 150.209 90.8517C149.814 90.9019 149.419 90.9465 149.047 91.0023C148.437 91.0859 147.839 91.1863 147.24 91.2922C146.88 91.3591 146.514 91.4038 146.154 91.4707C145.474 91.5989 144.806 91.7495 144.126 91.9001C143.848 91.967 143.575 92.0116 143.302 92.0785C142.355 92.296 141.413 92.5413 140.484 92.8034L139.932 92.9763C139.177 93.1938 138.439 93.4224 137.69 93.6622L136.731 94.0079C136.22 94.1919 135.691 94.3648 135.192 94.5655C134.797 94.4094 134.401 94.2477 134.03 94.0748C133.658 93.902 133.269 93.7681 132.868 93.5952C132.38 93.3778 131.903 93.1491 131.421 92.9149C131.09 92.7588 130.742 92.6082 130.41 92.4354C129.858 92.1733 129.336 91.8777 128.795 91.5878C128.534 91.4484 128.261 91.3257 127.994 91.1751C127.267 90.7625 126.535 90.3387 125.821 89.9149C125.767 89.8758 125.711 89.8404 125.652 89.8089C118.217 85.2111 111.894 79.138 107.109 71.9982C106.592 71.2175 106.104 70.4368 105.627 69.645C105.459 69.3606 105.302 69.0874 105.139 68.7862C104.849 68.2955 104.558 67.7881 104.291 67.2862C104.123 66.9739 103.966 66.6561 103.797 66.3327C103.559 65.8643 103.309 65.3791 103.083 64.8996C102.914 64.5706 102.775 64.2248 102.618 63.8902C102.426 63.4664 102.235 63.0426 102.037 62.6188L101.956 62.4125C101.596 61.5761 101.264 60.7396 100.951 59.8809C100.835 59.5686 100.736 59.2619 100.643 58.9496C100.439 58.392 100.248 57.8344 100.062 57.2767C99.9399 56.9199 99.8469 56.5518 99.7424 56.1894C99.5971 55.6819 99.4403 55.18 99.3125 54.6614C99.2137 54.2711 99.1324 53.8863 99.0336 53.496C98.9174 52.9997 98.7954 52.509 98.7025 52.0127C98.6153 51.6112 98.5456 51.1986 98.4759 50.8026C98.3771 50.3063 98.2958 49.8268 98.2087 49.3305C98.1506 48.9178 98.0925 48.5052 98.046 48.0814C97.9995 47.6576 97.9124 47.1223 97.8659 46.626C97.8194 46.1297 97.7788 45.7784 97.7439 45.3546C97.7091 44.9308 97.6626 44.3899 97.6393 43.8992C97.6161 43.4084 97.5871 43.0404 97.5754 42.6166C97.5754 42.3155 97.5754 42.0311 97.5754 41.73H113.209C113.537 52.8257 118.278 63.38 126.458 71.2259C134.639 79.0719 145.638 83.6142 157.198 83.9203Z" fill="#FCDE44"/>
<path d="M72.74 41.4121C71.8396 48.2926 68.5789 54.6896 63.4721 59.5946C58.3652 64.4996 51.7027 67.6333 44.5352 68.5018C45.4355 61.6214 48.6962 55.2243 53.8031 50.3193C58.9099 45.4144 65.5724 42.2806 72.74 41.4121Z" fill="#69DB00"/>
<path d="M157.296 122.882C156.391 129.763 153.126 136.159 148.015 141.061C142.903 145.963 136.238 149.092 129.068 149.955C129.973 143.075 133.239 136.679 138.35 131.777C143.461 126.875 150.127 123.745 157.296 122.882Z" fill="#D24A43"/>
<path d="M72.7053 149.821H44.5295V122.776C51.7772 123.416 58.5628 126.471 63.7093 131.411C68.8558 136.351 72.0385 142.865 72.7053 149.821Z" fill="#4E89FB"/>
<path d="M129.248 41.4121H157.471V68.5018C150.21 67.8626 143.412 64.8032 138.257 59.8547C133.101 54.9062 129.914 48.3811 129.248 41.4121Z" fill="#FCDE44"/>
</svg>
