<svg width="30" height="30" viewBox="0 0 30 30" fill="none" xmlns="http://www.w3.org/2000/svg">
<path d="M5 7.5L12.6345 13.2653L12.6371 13.2674C13.4848 13.8891 13.9089 14.2001 14.3734 14.3203C14.784 14.4265 15.2156 14.4265 15.6262 14.3203C16.0912 14.2 16.5165 13.8881 17.3657 13.2653C17.3657 13.2653 22.2626 9.50742 25 7.5M3.75 19.7502V10.2502C3.75 8.85011 3.75 8.14953 4.02248 7.61475C4.26217 7.14434 4.64434 6.76217 5.11475 6.52248C5.64953 6.25 6.35011 6.25 7.75024 6.25H22.2502C23.6504 6.25 24.3495 6.25 24.8842 6.52248C25.3547 6.76217 25.7381 7.14434 25.9778 7.61475C26.25 8.149 26.25 8.84874 26.25 10.2461V19.7545C26.25 21.1519 26.25 21.8506 25.9778 22.3849C25.7381 22.8553 25.3547 23.2381 24.8842 23.4778C24.35 23.75 23.6513 23.75 22.2539 23.75H7.74614C6.34874 23.75 5.649 23.75 5.11475 23.4778C4.64434 23.2381 4.26217 22.8553 4.02248 22.3849C3.75 21.8501 3.75 21.1504 3.75 19.7502Z" stroke="black" stroke-width="2" stroke-linecap="round" stroke-linejoin="round"/>
</svg>
