<svg width="26" height="26" viewBox="0 0 26 26" fill="none" xmlns="http://www.w3.org/2000/svg">
<path d="M4.33325 7.80025V18.2003C4.33325 19.4137 4.33325 20.0201 4.5694 20.4836C4.77713 20.8913 5.10835 21.2231 5.51603 21.4308C5.97905 21.6667 6.5855 21.6667 7.79657 21.6667H18.2033C19.4143 21.6667 20.0199 21.6667 20.4829 21.4308C20.8906 21.2231 21.2229 20.8913 21.4307 20.4836C21.6666 20.0206 21.6666 19.415 21.6666 18.2039V7.79669C21.6666 6.58562 21.6666 5.97918 21.4307 5.51615C21.2229 5.10847 20.8906 4.77725 20.4829 4.56953C20.0195 4.33337 19.4136 4.33337 18.2001 4.33337H7.80013C6.58668 4.33337 5.97951 4.33337 5.51603 4.56953C5.10835 4.77725 4.77713 5.10847 4.5694 5.51615C4.33325 5.97963 4.33325 6.58681 4.33325 7.80025Z" stroke="#D0AE00" stroke-width="2" stroke-linecap="round" stroke-linejoin="round"/>
<path d="M5 8.2002V17.8002C5 18.9203 5 19.4801 5.21799 19.9079C5.40973 20.2842 5.71547 20.5905 6.0918 20.7822C6.5192 21 7.07899 21 8.19691 21H17.8031C18.921 21 19.48 21 19.9074 20.7822C20.2837 20.5905 20.5905 20.2842 20.7822 19.9079C21 19.4805 21 18.9215 21 17.8036V8.19691C21 7.07899 21 6.5192 20.7822 6.0918C20.5905 5.71547 20.2837 5.40973 19.9074 5.21799C19.4796 5 18.9203 5 17.8002 5H8.2002C7.08009 5 6.51962 5 6.0918 5.21799C5.71547 5.40973 5.40973 5.71547 5.21799 6.0918C5 6.51962 5 7.08009 5 8.2002Z" stroke="black" stroke-width="2" stroke-linecap="round" stroke-linejoin="round"/>
</svg>
