<svg width="30" height="30" viewBox="0 0 30 30" fill="none" xmlns="http://www.w3.org/2000/svg">
<path d="M11.8781 5.32152C11.4984 4.37238 10.5791 3.75 9.55688 3.75H6.11842C4.81038 3.75 3.75 4.81012 3.75 6.11816C3.75 17.2365 12.7635 26.25 23.8818 26.25C25.1899 26.25 26.25 25.1895 26.25 23.8815L26.2506 20.4424C26.2506 19.4202 25.6284 18.5011 24.6792 18.1214L21.3837 16.8037C20.5311 16.4626 19.5604 16.6161 18.8549 17.204L18.0044 17.9133C17.0111 18.7411 15.5495 18.6753 14.6352 17.761L12.2403 15.3638C11.326 14.4495 11.2584 12.9892 12.0862 11.9959L12.7954 11.1454C13.3833 10.4399 13.5381 9.46895 13.1971 8.61636L11.8781 5.32152Z" stroke="black" stroke-width="2" stroke-linecap="round" stroke-linejoin="round"/>
</svg>
