<svg width="30" height="30" viewBox="0 0 30 30" fill="none" xmlns="http://www.w3.org/2000/svg">
<path d="M6.25 12.4036C6.25 18.4683 11.5556 23.4837 13.904 25.4065C14.2401 25.6817 14.4101 25.8209 14.6609 25.8915C14.8561 25.9465 15.1435 25.9465 15.3387 25.8915C15.59 25.8208 15.7588 25.6829 16.0962 25.4067C18.4446 23.4838 23.7499 18.4689 23.7499 12.4041C23.7499 10.109 22.8281 7.90756 21.1871 6.28465C19.5462 4.66174 17.3207 3.75 15.0001 3.75C12.6795 3.75 10.4538 4.66188 8.81282 6.28479C7.17187 7.9077 6.25 10.1084 6.25 12.4036Z" stroke="black" stroke-width="2" stroke-linecap="round" stroke-linejoin="round"/>
<path d="M12.5 11.25C12.5 12.6307 13.6193 13.75 15 13.75C16.3807 13.75 17.5 12.6307 17.5 11.25C17.5 9.86929 16.3807 8.75 15 8.75C13.6193 8.75 12.5 9.86929 12.5 11.25Z" stroke="black" stroke-width="2" stroke-linecap="round" stroke-linejoin="round"/>
</svg>
