<svg width="30" height="30" viewBox="0 0 30 30" fill="none" xmlns="http://www.w3.org/2000/svg">
<path d="M7.5 22.4999C7.57957 22.5 7.66158 22.5 7.74614 22.5H15M7.5 22.4999C6.26466 22.499 5.61667 22.4835 5.11475 22.2278C4.64434 21.9881 4.26217 21.6046 4.02248 21.1342C3.75 20.5995 3.75 19.9004 3.75 18.5002V11.5002C3.75 10.1001 3.75 9.39953 4.02248 8.86475C4.26217 8.39434 4.64434 8.01217 5.11475 7.77248C5.64953 7.5 6.35011 7.5 7.75024 7.5H22.2502C23.6504 7.5 24.3495 7.5 24.8842 7.77248C25.3547 8.01217 25.7381 8.39434 25.9778 8.86475C26.25 9.399 26.25 10.0987 26.25 11.4961V18.5039C26.25 19.9013 26.25 20.6 25.9778 21.1342C25.7381 21.6046 25.3547 21.9881 24.8842 22.2278C24.35 22.5 23.6513 22.5 22.2539 22.5H15M7.5 22.4999C7.50005 21.1193 9.17896 20 11.25 20C13.3211 20 15 21.1193 15 22.5M7.5 22.4999C7.5 22.5 7.5 22.4999 7.5 22.4999ZM22.5 17.5H17.5M22.5 13.75H18.75M11.25 16.25C9.86929 16.25 8.75 15.1307 8.75 13.75C8.75 12.3693 9.86929 11.25 11.25 11.25C12.6307 11.25 13.75 12.3693 13.75 13.75C13.75 15.1307 12.6307 16.25 11.25 16.25Z" stroke="black" stroke-width="1.5" stroke-linecap="round" stroke-linejoin="round"/>
</svg>
