<svg width="49" height="47" viewBox="0 0 49 47" fill="none" xmlns="http://www.w3.org/2000/svg">
<g clip-path="url(#clip0_75_980)">
<path fill-rule="evenodd" clip-rule="evenodd" d="M47.8771 11.5765C48.216 10.5138 47.8771 9.73145 46.254 9.73145H40.8946C39.5307 9.73145 38.9019 10.4068 38.561 11.1522C38.561 11.1522 35.8353 17.3725 31.9745 21.4129C30.725 22.5846 30.1575 22.9563 29.4755 22.9563C29.1346 22.9563 28.6221 22.5846 28.6221 21.52V11.5765C28.6221 10.2998 28.2465 9.73145 27.1113 9.73145H18.6833C17.8319 9.73145 17.3195 10.3231 17.3195 10.8856C17.3195 12.0942 19.2509 12.3745 19.4489 15.7765V23.1684C19.4489 24.7897 19.1365 25.0836 18.4546 25.0836C16.6375 25.0836 12.2173 18.8341 9.59379 11.6835C9.08542 10.292 8.57092 9.73145 7.20096 9.73145H1.8375C0.30625 9.73145 0 10.4068 0 11.1522C0 12.4796 1.81708 19.0735 8.46271 27.7947C12.8931 33.7503 19.1304 36.9791 24.8124 36.9791C28.2199 36.9791 28.6405 36.2629 28.6405 35.027V30.5253C28.6405 29.0909 28.9631 28.8048 30.0431 28.8048C30.8394 28.8048 32.2012 29.1785 35.3821 32.0492C39.0162 35.4532 39.6145 36.9791 41.6602 36.9791H47.0196C48.5508 36.9791 49.3185 36.2629 48.8775 34.846C48.3916 33.4369 46.6562 31.3914 44.3552 28.9644C43.1057 27.5826 41.2315 26.0937 40.6618 25.3483C39.8676 24.3926 40.0942 23.9664 40.6618 23.1159C40.6618 23.1159 47.1952 14.5017 47.875 11.5765" fill="black"/>
</g>
<defs>
<clipPath id="clip0_75_980">
<rect width="49" height="46.7103" fill="white"/>
</clipPath>
</defs>
</svg>
